<svg width="80" height="80" viewBox="0 0 80 80" fill="none" xmlns="http://www.w3.org/2000/svg">
<path d="M49.7809 11.2969C49.3277 11.75 48.8121 13.1094 48.6715 14.2344C48.5309 15.3906 48.7809 16.6406 49.4684 18.1719C50.2027 19.7656 50.2496 20.9531 49.6871 22.5313L49.2965 23.5781L49.6246 24.0156C50.1246 24.6719 50.9215 24.7031 51.4527 24.0625C52.234 23.1406 52.6715 20.8438 52.359 19.375C52.2652 18.9063 51.9215 17.9688 51.609 17.2813C50.9059 15.7188 50.8277 14.3125 51.3746 13.0625C51.7965 12.125 51.7965 11.875 51.3902 11.3438C50.984 10.8281 50.2809 10.7969 49.7809 11.2969Z" fill="white"/>
<path d="M40.0623 14.2813C39.4841 14.5313 38.9529 15.6563 38.7029 17.1406C38.4685 18.4531 38.7029 19.75 39.4529 21.4219C40.1873 23.0313 40.2498 24.2969 39.6873 25.7031C39.2654 26.7344 39.3591 27.2656 40.031 27.6406C40.9998 28.1875 41.8591 27.2344 42.281 25.0938C42.5935 23.5781 42.4216 22.3438 41.6248 20.5938C41.1091 19.4688 41.031 19.1406 41.0466 18.125C41.0466 17.2656 41.1248 16.75 41.3748 16.1875C41.8123 15.2031 41.8123 15.0625 41.2654 14.5156C40.7498 14 40.7185 14 40.0623 14.2813Z" fill="white"/>
<path d="M60.3124 14.1719C58.9842 14.6563 58.2499 17.9531 58.9842 20.1563C59.1405 20.625 59.4374 21.3594 59.6561 21.7969C60.203 22.8906 60.2186 24.375 59.6874 25.7969C59.328 26.7813 59.328 26.8594 59.578 27.2344C59.8749 27.7031 60.6249 27.9063 61.078 27.6563C61.5624 27.4063 62.1561 26.0938 62.3749 24.8438C62.6249 23.4219 62.4061 22.1875 61.6405 20.4688C60.9374 18.9063 60.8592 17.5469 61.3905 16.3281C61.578 15.9219 61.7186 15.4219 61.7186 15.2344C61.7186 14.5781 60.9061 13.9688 60.3124 14.1719Z" fill="white"/>
<path d="M35.156 30.9844C33.6404 31.4062 32.5154 32.5156 32.2029 33.9219C32.1091 34.2969 32.031 35.6562 32.031 36.9219V39.2344L31.531 38.8594C30.7029 38.25 29.4373 37.6562 28.156 37.3125C26.4373 36.8437 22.6248 36.8437 20.9216 37.3125C19.3904 37.7187 18.1091 38.375 17.0779 39.2656C16.3123 39.9219 16.1873 39.9687 15.1248 40.0781C8.35914 40.6875 4.21852 43.3437 3.20289 47.6875C3.07789 48.25 2.71852 49.2344 2.42164 49.8906C-0.156482 55.4531 -0.672107 60.9687 1.03102 64.6719C2.76539 68.4844 6.87477 70.1094 10.3904 68.375C11.2966 67.9219 11.9216 67.4219 13.3748 66C15.3435 64.0781 15.9216 63.6562 17.4998 63.0781C18.4529 62.7187 18.5935 62.7187 19.9216 62.875C20.9841 63 21.5935 63.1875 22.4216 63.5937C23.3279 64.0469 23.6716 64.1406 24.531 64.1406C25.3904 64.1406 25.7341 64.0469 26.6404 63.5937C27.4998 63.1562 28.0466 63.0156 29.2185 62.8906C30.6716 62.7187 30.7029 62.7344 31.906 63.2187C33.3435 63.7969 33.8123 64.1406 35.6873 65.9844C37.4216 67.6875 38.3591 68.3437 39.6716 68.75C42.2966 69.5781 45.3591 68.5937 46.9373 66.4062L47.406 65.7812H52.3591C56.1091 65.7812 57.5935 65.7187 58.406 65.5469C62.6091 64.6719 65.906 62.0156 67.906 57.9531L68.3279 57.0625L69.5623 56.9531C72.5154 56.7031 74.5623 55.75 76.656 53.6719C77.8748 52.4687 78.1873 52.0469 78.7967 50.7812C79.7342 48.8594 80.0779 47.1719 79.9529 45.2187C79.5779 39.6719 75.2654 35.2812 69.7029 34.8125C69.2029 34.7656 69.1717 34.7187 68.8904 33.8281C68.5467 32.6719 67.7967 31.7656 66.781 31.25L66.0154 30.8594L50.9373 30.8281C39.3279 30.8125 35.7029 30.8437 35.156 30.9844ZM65.9529 33.4844C66.1873 33.6406 66.4529 33.9531 66.5467 34.2031C66.6873 34.5156 66.7185 37.3281 66.6873 44.5469C66.6248 55.5312 66.656 55.2031 65.5467 57.375C64.0623 60.3125 61.5935 62.3125 58.4373 63.125C57.4216 63.3906 56.7029 63.4375 52.906 63.4375H48.5623L48.6404 63.0781C49.5623 59.4062 48.8748 54.8437 46.6404 49.8437C46.281 49.0312 45.8904 47.9844 45.7966 47.5312C45.4216 45.7187 44.2029 44 42.406 42.7187C40.781 41.5469 37.8435 40.5312 35.281 40.2187L34.3748 40.125V37.3906C34.3748 34.0312 34.4998 33.6562 35.781 33.2187C35.906 33.1875 42.656 33.1562 50.781 33.1719C64.7185 33.2031 65.5623 33.2187 65.9529 33.4844ZM71.1717 37.4219C74.2029 38.2187 76.7654 40.9219 77.4373 44.0469C77.7342 45.4687 77.7029 46.6094 77.3435 48.0312C76.906 49.7344 76.3592 50.6875 74.9998 52.0312C73.4217 53.6094 71.9529 54.3281 69.7029 54.6094L68.8592 54.7187L68.9529 54.125C69.0154 53.7812 69.0623 53.2656 69.0623 52.9531V52.375L70.031 52.2031C71.7654 51.9062 73.5467 50.6562 74.4373 49.1406C75.8435 46.75 75.4842 43.5625 73.5935 41.5C72.5623 40.375 71.4842 39.8437 69.4998 39.4531C69.0779 39.375 69.0623 39.3437 69.0623 38.2812V37.1875H69.656C69.9842 37.1875 70.656 37.2969 71.1717 37.4219ZM27.5935 39.6094C30.9529 40.4844 32.8123 43.0625 32.8123 46.875C32.8123 48.4844 32.6248 49.6875 32.0935 51.5156C30.6716 56.4531 27.1404 61.4375 24.8123 61.8281C23.9841 61.9531 22.9685 61.4062 21.7029 60.1719C19.9529 58.4375 18.5466 56.0312 17.4373 52.8594C16.7185 50.7812 16.4998 50.375 16.031 50.25C15.5466 50.125 14.9216 50.3594 14.781 50.7031C14.5935 51.2187 14.6873 52.0781 15.0935 53.25C15.6091 54.8281 17.1404 58 17.9685 59.2187C18.3279 59.75 18.5935 60.2187 18.5466 60.25C18.3279 60.4687 14.3123 59.2812 12.8904 58.5625C9.43727 56.8281 6.56227 53.8594 5.76539 51.2187C5.35914 49.875 5.40602 48.125 5.90602 47.0156C6.84352 44.875 10.0935 43.0625 13.8904 42.5781C14.6716 42.4687 14.7185 42.4844 14.6248 42.75C14.3435 43.4844 14.0623 45.0781 14.0154 46.0937C13.9841 47.1094 14.0154 47.25 14.3591 47.5156C14.5623 47.6719 14.9216 47.8125 15.1716 47.8125C15.8591 47.8125 16.2029 47.3437 16.3123 46.2969C16.5623 44.0625 17.3435 42.1875 18.5154 41.1094C19.5466 40.1562 20.656 39.7031 22.9685 39.3125C23.7029 39.1875 26.656 39.375 27.5935 39.6094ZM70.7029 42.2187C72.0467 42.8906 72.8123 44.0156 72.9373 45.5469C73.0779 47.4062 72.0623 49.0469 70.3748 49.6875C68.9529 50.2187 69.0623 50.5312 69.0623 45.8594V41.7187L69.5779 41.8125C69.8435 41.875 70.3592 42.0469 70.7029 42.2187ZM37.4998 43.0625C40.4841 43.9062 42.5935 45.4531 43.281 47.2812C43.7966 48.6406 43.6873 50.4687 43.0154 51.9062C42.3279 53.375 41.6716 54.2812 40.406 55.5312C38.6091 57.2969 36.2029 58.7187 33.5154 59.5781C31.9685 60.0625 30.6404 60.375 30.531 60.2656C30.4841 60.2187 30.7185 59.7656 31.0779 59.25C34.3904 54.3594 35.8904 47.5937 34.6091 43.3437C34.4841 42.9219 34.3748 42.5469 34.3748 42.5156C34.3748 42.3906 36.281 42.7187 37.4998 43.0625ZM5.14039 55.0625C6.89039 57.5937 10.3748 60.2031 13.6716 61.4219L14.5935 61.7656L14.0623 62.1719C13.7654 62.3906 12.7498 63.3281 11.7966 64.2344C9.81227 66.1562 9.09352 66.5781 7.65602 66.6875C6.31227 66.7812 5.28102 66.3594 4.29664 65.2969C2.14039 62.9844 1.76539 58.8437 3.31227 54.0625C3.48414 53.5 3.67164 52.9844 3.71852 52.9062C3.74977 52.8437 3.96852 53.125 4.20289 53.5312C4.43727 53.9531 4.85914 54.6406 5.14039 55.0625ZM45.8435 54.3437C47.2966 59 46.906 63.0156 44.7654 65.2969C43.781 66.3437 42.7654 66.7656 41.4216 66.6875C39.9373 66.6094 39.1873 66.1719 37.4841 64.4375C36.6716 63.625 35.6716 62.6875 35.2498 62.375L34.4841 61.8125L35.0154 61.5781C38.5154 60.0469 39.9841 59.1406 41.9216 57.3437C43.0466 56.2969 44.8279 53.9062 45.0779 53.125C45.2341 52.6406 45.3904 52.875 45.8435 54.3437Z" fill="white"/>
</svg>
