<svg width="70" height="70" viewBox="0 0 70 70" fill="none" xmlns="http://www.w3.org/2000/svg">
<path d="M10.9376 0.0957031C10.2814 0.355469 7.12317 2.26953 6.80871 2.61133C6.50793 2.92578 6.4259 3.14453 6.4259 3.65039C6.4259 4.23828 6.79504 4.93555 11.4298 12.9609C14.1779 17.7324 16.4064 21.6426 16.379 21.6562C16.3517 21.6836 15.9415 21.957 15.4493 22.2852C14.9571 22.6133 14.1505 23.2969 13.6446 23.7891C12.5919 24.8008 12.4825 25.2109 13.0568 25.7715C13.59 26.3184 13.9591 26.209 14.9982 25.2793C17.9376 22.6133 21.3282 21.4375 25.129 21.7656C26.756 21.9023 27.8497 22.2031 29.463 22.9688C30.9122 23.6523 32.088 24.4727 33.0861 25.4844L33.6876 26.1133L33.3732 26.6191C32.0333 28.8477 31.3087 31.2129 31.213 33.7695C31.1446 35.3008 31.172 35.5059 31.3907 35.793C31.7325 36.2168 32.4571 36.2441 32.8536 35.8477C33.0997 35.6016 33.1544 35.3281 33.2364 33.9473C33.3732 31.6914 33.6739 30.5156 34.631 28.6289C35.1642 27.5762 36.3946 25.9629 37.338 25.0742C41.3029 21.3828 47.5236 20.6445 52.2677 23.2832C54.1818 24.3633 55.9864 26.0996 57.1212 27.959C57.7501 28.9844 58.379 30.6797 58.6798 32.1289C58.9806 33.5508 58.9669 35.7109 58.6388 37.2285L58.4747 38.0078H55.631H52.7736V36.832C52.7736 35.2871 52.5548 34.8633 51.7482 34.8633C50.6954 34.8633 50.7228 34.6309 50.7228 43.8457C50.7228 51.8984 50.7228 52.0488 50.4493 52.3359C50.2716 52.5273 49.9982 52.6367 49.7111 52.6367C48.8634 52.6367 48.8361 52.5273 48.7814 48.8086C48.7267 45.0625 48.672 44.8438 47.7696 43.9688C46.5118 42.752 44.4884 42.875 43.3673 44.2285C42.8478 44.8711 42.6564 45.541 42.6564 46.7852C42.6564 47.9883 42.3966 48.3984 41.6446 48.3984C40.7423 48.3984 40.756 48.4121 40.715 43.2988C40.6739 38.7188 40.6739 38.6914 40.3595 38.3906L40.045 38.0762L25.7853 38.0352L11.5255 38.0078L11.3614 37.2148C10.8556 34.8359 11.0743 32.2656 11.9904 29.8047C12.5236 28.3691 12.5099 27.9863 11.8673 27.6309C11.2794 27.2891 10.8009 27.5488 10.3634 28.4375C9.20129 30.7617 8.73645 34.248 9.22863 36.9824C9.33801 37.5703 9.40637 38.0762 9.3927 38.0762C9.37902 38.0898 9.11926 38.1719 8.80481 38.2539C8.16223 38.4453 7.06848 39.3477 6.75402 39.9355C6.24817 40.9199 6.27551 42.4785 6.80871 43.3398C7.50598 44.4609 8.39465 44.9941 9.74817 45.0898C10.254 45.1309 10.6642 45.1719 10.6642 45.1992C10.6642 45.623 15.2716 67.3613 15.4493 67.7715C15.7911 68.5645 16.7071 69.3848 17.5821 69.7266C18.3204 70 18.5529 70 35.0001 70C51.4474 70 51.6798 70 52.4181 69.7266C53.2931 69.3848 54.2091 68.5645 54.5509 67.7715C54.7286 67.3613 59.3361 45.623 59.3361 45.1992C59.3361 45.1719 59.7462 45.1309 60.2657 45.0898C61.6056 44.9941 62.4943 44.4609 63.1915 43.3398C63.7247 42.4785 63.7521 40.9199 63.2462 39.9355C62.9181 39.3203 61.8107 38.418 61.1407 38.2402C60.6486 38.1035 60.5665 38.0352 60.6212 37.8027C61.0997 35.875 61.0587 32.9629 60.5118 30.8301C59.254 25.9629 55.4396 21.9023 50.6954 20.3711L49.8341 20.0977L49.8751 18.4844C49.9982 14.2734 48.4943 10.5 45.5138 7.51953C43.5861 5.5918 41.3712 4.33398 38.5685 3.58203C37.4064 3.28125 36.9825 3.22656 35.0001 3.22656C32.5255 3.22656 31.6232 3.39062 29.4493 4.22461C25.6075 5.70117 22.3673 9.07812 20.9181 13.1113C20.6583 13.7949 20.5626 13.9316 20.4532 13.7812C20.3712 13.6582 18.6075 10.6367 16.5431 7.04102C13.1525 1.17578 12.7286 0.492188 12.2775 0.259766C11.7716 0 11.3341 -0.0546875 10.9376 0.0957031ZM12.0177 3.32227L12.4962 4.19727L11.5665 5.79688C11.0607 6.67188 10.6232 7.38281 10.5958 7.38281C10.5411 7.38281 8.6134 3.97852 8.6134 3.85547C8.6134 3.66406 11.2794 2.21484 11.4161 2.32422C11.4982 2.39258 11.7579 2.84375 12.0177 3.32227ZM38.1857 5.5918C42.6017 6.75391 46.0607 10.1445 47.3868 14.5879C47.6739 15.5449 47.756 16.1875 47.8107 17.7324L47.8927 19.6875L46.2657 19.6738C44.297 19.6738 42.9845 19.8652 41.3986 20.3848C39.2521 21.082 37.5841 22.0664 35.9435 23.6113L35.0001 24.5L34.0568 23.6113C32.4161 22.0664 30.7482 21.082 28.6017 20.3848C27.0157 19.8652 25.6896 19.6738 23.7345 19.6738H22.1075L22.1896 17.7324C22.2443 16.1875 22.3263 15.5449 22.6134 14.5879C24.0216 9.83008 27.8634 6.30273 32.6486 5.40039C34.0841 5.12695 36.7775 5.22266 38.1857 5.5918ZM15.5314 9.50195C15.5724 9.67969 15.3263 10.2676 14.7794 11.1973C14.3282 11.9766 13.9044 12.6738 13.8497 12.7285C13.7404 12.8379 11.7989 9.63867 11.8536 9.44727C11.8946 9.29688 13.4122 6.6582 13.5763 6.45312C13.6857 6.31641 13.9318 6.64453 14.588 7.75195C15.0665 8.55859 15.4904 9.35156 15.5314 9.50195ZM17.8419 13.3984C18.3341 14.2598 18.7579 15.0117 18.7716 15.0664C18.7989 15.1895 17.0489 18.3066 16.9532 18.3203C16.9122 18.3203 16.4611 17.5684 15.9279 16.666L14.9845 14.998L15.3673 14.3008C16.1739 12.8652 16.8439 11.7441 16.8849 11.7852C16.9122 11.8125 17.3361 12.5371 17.8419 13.3984ZM20.1251 18.8262L20.1798 20.0703L19.3185 20.3574C18.3341 20.6855 18.1837 20.6992 18.1837 20.5078C18.1837 20.248 20.0294 17.1582 20.0568 17.3633C20.0704 17.4727 20.1114 18.1289 20.1251 18.8262ZM38.5548 41.5625V43.0664H24.0626C13.4122 43.0664 9.4884 43.0254 9.24231 42.9023C8.09387 42.3828 8.23059 40.6602 9.44738 40.2363C9.78918 40.1133 13.5079 40.0723 24.2404 40.0723L38.5548 40.0586V41.5625ZM60.5529 40.2363C61.7696 40.6602 61.9064 42.3828 60.7579 42.9023C60.5255 43.0117 59.1857 43.0664 56.6017 43.0664H52.7736V41.5625V40.0586L56.4376 40.0723C58.8986 40.0723 60.2384 40.127 60.5529 40.2363ZM38.5958 46.6758C38.6779 48.4258 38.8966 49.0273 39.7032 49.7246C40.6876 50.5996 42.3146 50.6953 43.381 49.957C44.2696 49.3418 44.7071 48.3574 44.7071 46.9492C44.7071 46.0879 44.7618 45.7734 44.9532 45.5547C45.3087 45.1172 45.8146 45.0488 46.2384 45.377L46.5939 45.6641L46.6486 49.041C46.6896 52.1855 46.7169 52.4727 46.9904 52.9785C47.5919 54.0996 48.5489 54.6875 49.7931 54.6875C50.6954 54.6875 51.7892 54.0996 52.2267 53.3887L52.5275 52.9102H54.0861C54.9474 52.9102 55.6446 52.9512 55.6446 53.0059C55.631 53.0742 55.3439 54.5234 54.9747 56.2598L54.3185 59.4043L36.5314 59.4727L18.7443 59.541L18.4435 59.8418C18.047 60.2383 18.0607 60.9492 18.4708 61.2773C18.7443 61.5098 19.7697 61.5234 36.3126 61.5234C45.965 61.5234 53.8673 61.5508 53.8673 61.5918C53.8673 61.6191 53.6212 62.8086 53.3204 64.2168C52.7462 66.9375 52.5821 67.3203 51.8029 67.7031C51.3654 67.9355 50.2853 67.9492 35.0001 67.9492C19.715 67.9492 18.6349 67.9355 18.1974 67.7031C17.9376 67.5801 17.6095 67.3066 17.4591 67.1152C17.2814 66.8691 16.7892 64.791 15.8458 60.2109C15.1075 56.6152 14.465 53.498 14.4103 53.293L14.3282 52.9102L29.1075 52.8828L43.8732 52.8418L44.1739 52.541C44.5704 52.1445 44.5704 51.4883 44.1739 51.0918L43.8732 50.791L28.8751 50.75L13.8771 50.7227L13.3439 48.084C13.0568 46.6484 12.7833 45.377 12.7423 45.2812C12.7013 45.1582 15.3263 45.1172 25.5939 45.1172H38.5138L38.5958 46.6758ZM57.2579 45.2812C57.2169 45.377 56.9435 46.6484 56.6564 48.084L56.1232 50.7227H54.4552H52.7736V47.9199V45.1172H55.0431C56.8068 45.1172 57.2989 45.1582 57.2579 45.2812Z" fill="white"/>
<path d="M28.5605 10.2402C28.2734 10.4727 28.2324 10.623 28.2324 11.4023C28.2324 12.4551 28.5332 12.8926 29.2715 12.8926C29.9414 12.8926 30.2148 12.4688 30.2148 11.4297C30.2148 10.7188 30.1602 10.5273 29.9004 10.2812C29.5039 9.91211 28.9844 9.89844 28.5605 10.2402Z" fill="white"/>
<path d="M34.4258 10.1309C34.1114 10.3086 33.8653 11.252 33.9746 11.8945C34.084 12.5371 34.4532 12.8926 35 12.8926C35.834 12.8926 36.2715 11.9492 35.9571 10.8145C35.752 10.0488 35.0684 9.74805 34.4258 10.1309Z" fill="white"/>
<path d="M40.0863 10.2949C39.6898 10.7187 39.6624 12.1133 40.0316 12.5918C40.3734 13.002 41.057 13.002 41.4671 12.5918C41.7132 12.3457 41.7679 12.1406 41.7679 11.4023C41.7679 10.623 41.7269 10.4727 41.4398 10.2402C41.0023 9.88477 40.4417 9.91211 40.0863 10.2949Z" fill="white"/>
<path d="M31.4592 15.2988C30.926 15.832 30.926 17.2266 31.4456 17.7051C31.8147 18.0469 32.5393 18.0059 32.8401 17.623C33.2092 17.1855 33.1819 15.6816 32.8128 15.3125C32.471 14.9707 31.801 14.957 31.4592 15.2988Z" fill="white"/>
<path d="M37.1874 15.3125C36.8183 15.6816 36.7909 17.1855 37.16 17.623C37.4608 18.0059 38.1854 18.0469 38.5546 17.7051C39.0741 17.2266 39.0741 15.832 38.5409 15.2988C38.1991 14.957 37.5292 14.9707 37.1874 15.3125Z" fill="white"/>
</svg>
