<svg width="80" height="80" viewBox="0 0 80 80" fill="none" xmlns="http://www.w3.org/2000/svg">
<path d="M5.82846 9.375C5.15659 9.65625 4.03159 11.6406 3.37534 13.75C2.25034 17.2812 2.85971 20.2812 5.23471 22.9687C6.43784 24.3281 6.96909 25.3437 7.20346 26.6719C7.50034 28.3906 6.96909 30.5781 5.71909 32.6875C5.00034 33.875 4.93784 34.125 5.21909 34.6562C5.48471 35.1719 5.75034 35.3125 6.42221 35.3125C7.07846 35.3125 7.54721 34.75 8.43784 32.8906C9.50034 30.6719 9.75034 29.6406 9.75034 27.5781C9.73471 25.0312 9.21909 23.7969 7.18784 21.375C5.73471 19.6719 5.40659 18.8281 5.40659 16.875C5.42221 15.1094 5.75034 13.9844 6.81284 12.1562C7.18784 11.4844 7.50034 10.75 7.50034 10.4844C7.50034 9.64062 6.62534 9.04687 5.82846 9.375Z" fill="white"/>
<path d="M19.2187 9.42188C18.2656 9.90625 17.0312 12.4688 17.0312 13.9688C17.0312 15.375 17.7031 16.875 18.9219 18.2031C20.3125 19.7031 20.3281 21.2656 18.9844 23.0313C18.4531 23.7344 18.4531 24.5469 19 24.9844C19.7812 25.5938 20.5 25.2969 21.3906 24.0156C23.0312 21.6094 22.8281 18.7813 20.8594 16.5625C19.9062 15.4844 19.4687 14.5313 19.5781 13.7188C19.6719 13.0469 20.1875 11.9688 20.6719 11.4375C21.6094 10.4219 20.4375 8.79688 19.2187 9.42188Z" fill="white"/>
<path d="M59.6878 9.42187C58.8909 9.81249 58.7503 10.7969 59.3753 11.4844C59.8284 11.9844 60.3284 13.0625 60.4222 13.7187C60.5316 14.5312 60.0941 15.4844 59.1409 16.5625C57.2191 18.7344 56.9691 21.4062 58.4691 23.7812C59.4066 25.2656 60.2972 25.6562 61.0159 24.9219C61.5316 24.4219 61.5316 23.7031 61.0159 23.0312C60.4222 22.25 60.0003 21.25 60.0003 20.5781C60.0003 19.75 60.3441 19 61.1878 18.0781C62.7503 16.3437 63.2816 14.3594 62.6878 12.3906C62.1878 10.7656 60.9534 9.20312 60.1878 9.21874C60.1253 9.21874 59.9066 9.31249 59.6878 9.42187Z" fill="white"/>
<path d="M73.1719 9.37501C72.7657 9.54688 72.5 10 72.5 10.5469C72.5 10.7656 72.8125 11.4844 73.1875 12.1563C74.2188 13.9375 74.6094 15.25 74.5938 16.9531C74.5938 18.8594 74.25 19.6875 72.7188 21.4844C70.3125 24.3438 69.6875 26.9063 70.5469 30.3281C70.8438 31.5313 72.1563 34.2813 72.7188 34.875C73.3438 35.5781 74.3594 35.4688 74.7813 34.6563C75.0625 34.125 75 33.875 74.2813 32.6875C73.0313 30.5781 72.5 28.3906 72.7969 26.6719C73.0313 25.3438 73.5625 24.3281 74.7657 22.9688C75.9532 21.6406 76.7657 20.0781 77.0469 18.625C77.4375 16.5938 76.8907 13.7031 75.6875 11.3906C74.75 9.59376 74.0313 9.01563 73.1719 9.37501Z" fill="white"/>
<path d="M36.4689 17.125C34.8439 17.7031 33.7501 19.2969 33.7501 21.0938C33.7658 22.6562 34.0939 23.2031 36.5001 25.6406L38.6251 27.7812L37.3126 27.8906C32.8751 28.25 28.9064 29.2656 24.7814 31.1094C22.5626 32.0938 22.1251 32.4375 22.1251 33.1719C22.1251 33.4844 22.2501 33.875 22.4064 34.0469C22.9376 34.6406 23.3595 34.5938 25.0626 33.7812C30.0158 31.3906 34.3908 30.4062 40.0001 30.4062C45.7345 30.4062 50.2033 31.4375 55.1876 33.9062C64.297 38.4219 71.1564 47.1719 73.2814 56.9531C73.6095 58.5 74.0626 61.7344 74.0626 62.5938V63.125H39.9845H5.89077L6.00014 61.7656C6.76577 52.3281 11.422 43.5781 18.7501 37.7812C19.3908 37.2656 20.0158 36.7344 20.1251 36.5938C20.6564 35.9062 20.0001 34.6875 19.0783 34.6875C17.8751 34.6875 13.2345 39.0312 10.4376 42.8125C7.50014 46.75 5.28139 51.6875 4.15639 56.7969C3.84389 58.2188 3.43764 61.3594 3.43764 62.3594V63.125H2.26577C1.62514 63.125 0.937645 63.2031 0.718895 63.2969C0.17202 63.5469 -0.0623553 64.2188 0.0626447 65.1719C0.42202 67.8438 2.46889 70.0469 5.12514 70.6094C6.29702 70.8594 73.6876 70.8594 74.8751 70.6094C76.2189 70.3281 77.2814 69.7188 78.2814 68.6562C79.297 67.5625 79.797 66.4688 79.9533 65C80.0314 64.125 80.0158 64.0625 79.5626 63.6094C79.1095 63.1562 79.0158 63.125 77.8439 63.125H76.6095L76.5001 61.5156C76.0939 55.6094 73.9376 49.3281 70.547 44.2344C64.2501 34.75 54.172 28.8281 42.6876 27.8906L41.3751 27.7812L43.5001 25.6406C45.9064 23.2031 46.2345 22.6562 46.2501 21.0938C46.2501 18.1719 43.4689 16.1719 40.7033 17.1094C40.0783 17.3281 39.922 17.3281 39.297 17.1094C38.422 16.8125 37.3126 16.8281 36.4689 17.125ZM39.0783 19.8594C39.7189 20.3125 40.297 20.2969 40.9533 19.8281C41.3126 19.5781 41.7033 19.4531 42.1564 19.4531C43.0783 19.4531 43.7501 20.1562 43.7501 21.125C43.7501 21.75 43.672 21.8594 41.8751 23.6562L40.0001 25.5469L38.1251 23.6562C36.3439 21.875 36.2501 21.7344 36.2501 21.1406C36.2501 19.625 37.7814 18.9375 39.0783 19.8594ZM77.1876 65.7344C77.1876 65.8125 77.0314 66.125 76.8283 66.4375C76.4533 67.0625 76.0158 67.4531 75.1564 67.9062C74.6251 68.1875 73.6564 68.2031 40.0001 68.2031H5.39077L4.76577 67.8594C4.42202 67.6719 4.00014 67.3906 3.81264 67.2344C3.40639 66.8906 2.81264 66.0312 2.81264 65.7969C2.81264 65.6719 13.1564 65.625 40.0001 65.625C60.4533 65.625 77.1876 65.6719 77.1876 65.7344Z" fill="white"/>
</svg>
