<svg width="70" height="70" viewBox="0 0 70 70" fill="none" xmlns="http://www.w3.org/2000/svg">
<path d="M30.6661 0.27343C30.1876 0.560539 30.0098 0.998039 30.1055 1.61327C30.2012 2.17382 33.6192 7.46484 34.002 7.64257C34.5899 7.91601 35.1231 7.8203 35.5606 7.39648C36.2852 6.67187 36.1759 6.35741 34.2344 3.28124C33.2911 1.77734 32.3614 0.42382 32.17 0.27343C31.7325 -0.0683672 31.2266 -0.0683672 30.6661 0.27343Z" fill="white"/>
<path d="M41.2211 0.519536C40.9066 0.587895 40.4965 0.91602 40.3324 1.24415C40.0863 1.69532 38.8148 7.71094 38.8969 8.0254C39.1293 8.96875 40.3461 9.35157 41.098 8.70899C41.4125 8.43555 41.5355 8.03907 42.1918 5.12696C42.6019 3.32227 42.9027 1.70899 42.8617 1.5586C42.7113 0.875004 41.9047 0.382817 41.2211 0.519536Z" fill="white"/>
<path d="M47.7696 6.09766C46.2794 7.04102 44.9122 7.95703 44.7482 8.14844C44.1193 8.83203 44.5704 10.1172 45.4864 10.2949C46.0333 10.3906 46.3751 10.2129 49.3009 8.36719C51.8712 6.74024 52.2267 6.41211 52.2267 5.74219C52.2267 5.03125 51.5568 4.375 50.8185 4.375C50.6407 4.375 49.3009 5.12696 47.7696 6.09766Z" fill="white"/>
<path d="M16.6663 7.45117C16.1877 7.71093 9.98071 21.5742 9.47485 23.5156C8.90063 25.7578 9.03735 28.5059 9.83032 30.7891C11.1018 34.4668 14.342 37.9668 17.842 39.457L18.676 39.7988L17.3225 44.8848C16.5842 47.6875 15.9006 50.0391 15.8186 50.1348C15.7229 50.2168 13.8772 51.0645 11.6897 51.9941C9.51586 52.9238 7.4104 53.8535 7.02758 54.0449C6.23461 54.4414 5.55102 55.166 5.18188 55.9727C4.86743 56.6562 4.84008 58.1875 5.11352 58.8437C5.40063 59.5273 6.24829 60.4023 6.98657 60.7715C7.34204 60.9492 10.5276 61.8789 14.0823 62.8359C19.9338 64.3945 20.6311 64.5586 21.4514 64.5039C22.9416 64.4082 24.0627 63.6562 24.6506 62.3574C25.0334 61.5098 25.0334 60.1699 24.6506 59.3223C24.5002 58.9805 23.092 56.9844 21.5334 54.8926C19.9748 52.8008 18.676 51.0098 18.6487 50.9277C18.594 50.8047 20.7131 42.5879 21.2737 40.7285C21.3284 40.5508 21.4514 40.5371 22.1897 40.6328C23.4338 40.8242 25.7034 40.6602 27.344 40.2637C28.8889 39.8809 31.1721 38.8828 32.2795 38.0762L32.9358 37.6113L33.2776 38.3633C34.5901 41.2207 37.5432 43.873 40.7834 45.0898C42.8479 45.8555 44.3108 46.1016 46.6487 46.0469C47.9475 46.0195 48.6858 46.0605 48.7268 46.1426C48.7541 46.2246 49.3831 48.5488 50.1077 51.2969L51.4475 56.3145L48.5354 60.2109C46.9495 62.3711 45.5139 64.3809 45.3498 64.709C44.9397 65.5293 44.9534 66.9785 45.3635 67.8398C46.0608 69.248 47.6057 70.123 49.1506 69.959C49.9983 69.877 62.0295 66.6641 62.8362 66.3223C65.3245 65.2285 65.8713 62.0156 63.8889 60.1152C63.4514 59.6914 62.4397 59.1992 58.7893 57.627C56.2873 56.5469 54.1956 55.6035 54.1409 55.5488C54.0178 55.4258 51.4065 45.6641 51.4065 45.377C51.4065 45.2676 51.8303 45.0078 52.3362 44.7754C53.7854 44.1328 55.4807 42.916 56.7522 41.6035C58.1057 40.209 58.885 39.1016 59.6233 37.543C60.4983 35.6699 60.7307 34.6445 60.7991 32.334C60.8948 29.3535 60.7717 28.9707 57.4495 21.5059C53.7307 13.166 53.676 13.043 53.3206 12.8516C53.1565 12.7559 52.8147 12.6875 52.5823 12.6875C52.3498 12.7012 49.301 13.4668 45.801 14.4102C42.301 15.3535 39.3889 16.1328 39.3342 16.1328C39.2659 16.1328 39.2659 15.5859 39.3069 14.916C39.4026 13.7266 39.4026 13.7129 39.0198 13.2891C38.678 12.9062 38.3225 12.7695 36.3811 12.2363C33.6877 11.498 33.3459 11.4844 32.7991 12.0176C32.2795 12.5371 32.2659 13.207 32.7444 13.7812C33.0178 14.1094 33.3596 14.2598 34.7952 14.6426C36.3127 15.0527 36.5041 15.1348 36.5041 15.3945C36.5041 15.6953 36.1487 19.1543 36.012 20.1934L35.9436 20.7676L35.4377 20.5488C33.0452 19.5371 29.8186 19.3047 27.1252 19.9473C25.6897 20.3027 24.8967 20.6172 23.4612 21.4375C20.7131 23.0234 16.9944 23.2559 13.9866 22.0527C13.3303 21.793 13.1252 21.6426 13.1663 21.4785C13.2209 21.2734 18.0471 10.3906 18.1428 10.2676C18.1565 10.2402 19.0725 10.4453 20.1526 10.7324L22.135 11.252L22.5725 10.9785C22.8459 10.8281 23.1057 10.5273 23.2151 10.2266C23.3791 9.78906 23.3791 9.67968 23.1741 9.25586C22.9006 8.66797 22.6272 8.54492 19.8108 7.80664C17.4866 7.1914 17.1995 7.16406 16.6663 7.45117ZM54.4006 21.3555C55.7541 24.418 56.8752 26.9609 56.8752 27.002C56.8752 27.1523 55.344 27.7676 54.428 27.9863C53.8401 28.123 52.9241 28.2051 51.8166 28.2051C49.6018 28.2051 48.6174 27.9453 46.1838 26.6875C43.9006 25.5117 42.5471 25.1563 40.0041 25.0469L38.2541 24.9785L38.3362 24.3496C38.3772 24.0078 38.5139 22.709 38.637 21.4648C38.76 20.2207 38.8967 19.168 38.9514 19.127C38.9924 19.0859 41.7678 18.3203 45.1174 17.4316C48.467 16.543 51.3245 15.7637 51.4748 15.709C51.6252 15.6543 51.7893 15.6543 51.8303 15.709C51.885 15.75 53.0334 18.293 54.4006 21.3555ZM33.1545 22.6953C33.7151 22.832 34.5081 23.1191 34.9319 23.3242C35.6975 23.6797 35.6975 23.6934 35.6291 24.1855C35.5881 24.459 35.4514 25.6621 35.3284 26.8652C35.0549 29.5449 34.7678 30.7207 34.0159 32.1699C33.2913 33.5781 31.5549 35.3691 30.1331 36.2031C28.0686 37.4336 25.2385 38.1172 22.9963 37.9395C19.8518 37.6934 17.2952 36.4629 15.0256 34.084C13.0295 31.9922 12.0315 29.75 11.9221 27.1113C11.8948 26.2773 11.9084 25.293 11.9631 24.9512C12.0725 24.2129 12.0315 24.2129 13.5764 24.8008C15.5315 25.5527 18.4299 25.7715 20.6448 25.3477C22.1623 25.0605 23.4885 24.5684 24.8831 23.7891C26.1545 23.0645 27.3713 22.627 28.6428 22.4355C29.7639 22.2578 31.9241 22.3809 33.1545 22.6953ZM42.5198 28.0957C43.012 28.2188 43.8049 28.5332 44.2971 28.793C47.7288 30.6113 48.9319 30.9531 51.8166 30.9531C53.9631 30.9531 55.3166 30.707 57.0256 30.0098C57.4905 29.8184 57.9143 29.6953 57.9553 29.7363C58.1467 29.9414 58.1194 33.0859 57.9143 34.1113C57.135 37.9121 53.8674 41.4668 49.9299 42.793C48.7678 43.2031 48.385 43.2578 46.7854 43.3125C44.1331 43.3945 42.219 42.957 40.1409 41.7676C37.8166 40.4414 35.9983 38.3086 35.2737 36.0527C35.1096 35.5469 35.1233 35.5059 35.6565 34.7539C36.7502 33.1953 37.4612 31.4043 37.7346 29.5723C37.9807 27.9453 37.9944 27.918 38.2541 27.8359C38.7327 27.6992 41.6584 27.8633 42.5198 28.0957ZM19.4006 56.6016C20.9182 58.6387 22.1897 60.4707 22.2307 60.6758C22.3401 61.2363 21.8479 61.7969 21.2463 61.7969C20.5901 61.7969 8.4768 58.543 8.08032 58.2559C7.6018 57.9141 7.5061 57.5312 7.76586 56.998C7.98461 56.5879 8.34008 56.4102 12.1682 54.7422C14.4651 53.7441 16.4065 52.9238 16.5022 52.9238C16.5842 52.9102 17.8967 54.5781 19.4006 56.6016ZM58.5706 60.5117C60.3616 61.291 61.9475 62.0293 62.0842 62.1523C62.4807 62.5078 62.4397 63.3691 62.0022 63.6562C61.6194 63.916 49.3557 67.252 48.7952 67.2656C48.2346 67.2656 47.7971 66.8418 47.7971 66.2812C47.7971 65.8711 48.2073 65.2422 50.5862 62.043L53.3752 58.2832L54.3459 58.6934C54.8655 58.9121 56.7795 59.7324 58.5706 60.5117Z" fill="white"/>
<path d="M27.125 10.1172C26.7012 10.2812 26.3867 10.7871 26.3867 11.3203C26.3867 11.9219 26.5781 12.25 27.0703 12.5098C27.6582 12.8105 28.1094 12.7559 28.6016 12.3184C29.75 11.293 28.5742 9.5293 27.125 10.1172Z" fill="white"/>
</svg>
