<?xml version="1.0" standalone="no"?>
<!DOCTYPE svg PUBLIC "-//W3C//DTD SVG 20010904//EN"
 "http://www.w3.org/TR/2001/REC-SVG-20010904/DTD/svg10.dtd">
<svg version="1.0" xmlns="http://www.w3.org/2000/svg"
 width="512.000000pt" height="512.000000pt" viewBox="0 0 512.000000 512.000000"
 preserveAspectRatio="xMidYMid meet">

<g transform="translate(0.000000,512.000000) scale(0.100000,-0.100000)"
fill="#ffffff" stroke="none">
<path d="M1325 4949 c-27 -6 -86 -28 -131 -49 -152 -73 -274 -232 -303 -394
-7 -39 -11 -358 -11 -937 0 -838 -1 -878 -18 -883 -50 -16 -85 -78 -281 -502
-109 -236 -205 -452 -214 -479 -45 -135 -47 -173 -47 -876 l0 -669 80 0 79 0
3 698 3 697 26 75 c14 41 102 240 195 442 l169 368 5 -598 c6 -592 6 -597 29
-659 44 -120 93 -164 149 -132 19 10 82 109 214 338 102 177 194 332 205 343
32 36 73 51 128 46 94 -8 152 -75 143 -167 -4 -37 -40 -108 -196 -377 -106
-183 -192 -342 -192 -354 0 -12 43 -93 95 -181 139 -231 138 -228 143 -396 l4
-143 80 0 80 0 -4 148 c-6 181 -21 233 -112 384 l-65 108 230 0 230 0 -6 -44
c-13 -86 8 -141 152 -393 75 -131 137 -239 138 -241 4 -5 135 73 135 81 0 4
-59 110 -132 235 -104 181 -132 236 -136 274 -14 146 175 227 274 116 12 -12
60 -92 109 -176 48 -84 95 -157 105 -162 29 -16 66 -12 91 9 l24 19 5 810 c5
799 5 811 26 838 39 53 71 69 134 69 63 0 95 -16 134 -69 21 -27 21 -40 26
-718 l5 -690 24 -19 c30 -24 72 -24 102 0 24 19 24 23 29 229 5 230 7 236 74
286 39 29 133 29 172 0 67 -50 69 -56 74 -286 5 -206 5 -210 29 -229 30 -24
72 -24 102 0 23 18 24 25 29 189 5 186 9 198 74 246 39 29 133 29 172 0 65
-48 69 -60 74 -246 5 -164 6 -171 29 -189 30 -24 72 -24 102 0 22 18 24 28 29
149 4 111 8 135 26 158 39 53 71 69 134 69 63 0 95 -16 134 -69 20 -27 21 -41
24 -457 l3 -429 80 0 80 0 -3 442 -3 443 -34 63 c-56 102 -140 158 -256 169
-70 6 -147 -13 -197 -49 l-28 -20 -45 47 c-110 112 -291 136 -407 53 l-28 -19
-49 50 c-27 28 -54 51 -60 51 -8 0 -11 318 -11 1065 l0 1065 80 0 80 0 0 -135
c0 -131 1 -137 25 -160 15 -16 35 -25 56 -25 29 0 52 20 194 160 l161 160 198
0 c127 0 214 4 240 12 55 16 138 99 154 154 17 58 17 730 0 788 -16 55 -99
138 -154 154 -30 9 -184 12 -565 12 l-524 0 -29 50 c-61 102 -177 196 -299
242 l-62 23 -890 1 c-531 1 -910 -2 -940 -7z m1876 -185 c63 -30 159 -109 159
-131 0 -6 -14 -16 -30 -23 -42 -17 -104 -90 -118 -138 -17 -56 -17 -729 0
-786 23 -78 135 -166 212 -166 15 0 16 -84 16 -1037 l0 -1038 -63 -16 c-34 -9
-70 -19 -79 -23 -16 -7 -17 20 -20 376 l-3 383 -34 63 c-38 69 -80 110 -151
144 -66 32 -196 31 -265 -2 -63 -31 -124 -91 -155 -155 l-25 -50 -3 -602 -3
-603 -39 0 c-26 0 -55 10 -85 29 -68 43 -156 57 -236 37 -35 -9 -81 -28 -102
-42 l-37 -24 -280 2 -279 3 151 260 c83 143 157 280 166 303 10 30 13 67 10
115 -6 91 -39 158 -108 220 -67 61 -129 81 -229 75 -90 -5 -164 -39 -215 -99
-17 -21 -94 -147 -171 -281 l-140 -243 -3 315 c-1 173 -1 889 0 1590 l3 1275
32 67 c17 37 50 87 72 111 44 48 135 101 197 116 23 5 406 9 914 8 l875 -2 66
-31z m1414 -309 l25 -24 0 -351 0 -351 -25 -24 -24 -25 -232 0 -232 0 -103
-102 -104 -102 0 78 c0 68 -3 80 -25 101 l-24 25 -231 0 -231 0 -24 25 -25 24
0 351 0 351 25 24 24 25 591 0 591 0 24 -25z"/>
<path d="M2000 4560 l0 -80 240 0 240 0 0 80 0 80 -240 0 -240 0 0 -80z"/>
<path d="M1746 3909 c-62 -15 -153 -68 -197 -116 -22 -24 -55 -74 -72 -111
-30 -63 -32 -75 -35 -209 -4 -141 -4 -142 21 -167 22 -22 35 -26 82 -26 l55 0
0 -80 0 -80 -55 0 c-46 0 -60 -4 -81 -25 -25 -25 -25 -26 -22 -189 3 -162 3
-163 32 -200 52 -69 21 -67 780 -64 674 3 685 3 712 24 65 48 69 61 72 239 3
164 3 165 -22 190 -21 21 -35 25 -81 25 l-55 0 0 80 0 80 55 0 c47 0 60 4 82
26 25 25 25 26 21 167 -3 134 -5 146 -35 209 -44 93 -100 151 -191 196 l-76
37 -475 2 c-268 1 -493 -3 -515 -8z m94 -229 l0 -80 80 0 80 0 0 80 0 80 80 0
80 0 0 -80 0 -80 80 0 80 0 0 80 0 80 80 0 80 0 0 -80 0 -80 80 0 80 0 0 80
c0 90 0 90 74 68 55 -16 138 -99 154 -154 7 -23 12 -67 12 -98 l0 -56 -640 0
-640 0 0 56 c0 87 18 133 75 189 48 48 93 72 143 74 21 1 22 -2 22 -79z m880
-480 l0 -80 -480 0 -480 0 0 80 0 80 480 0 480 0 0 -80z m160 -320 l0 -80
-640 0 -640 0 0 80 0 80 640 0 640 0 0 -80z"/>
<path d="M2160 1200 l0 -80 80 0 80 0 0 80 0 80 -80 0 -80 0 0 -80z"/>
<path d="M3520 4240 l0 -80 480 0 480 0 0 80 0 80 -480 0 -480 0 0 -80z"/>
<path d="M3520 3920 l0 -80 480 0 480 0 0 80 0 80 -480 0 -480 0 0 -80z"/>
</g>
</svg>
