<svg width="80" height="80" viewBox="0 0 80 80" fill="none" xmlns="http://www.w3.org/2000/svg">
<g clip-path="url(#clip0_159_2)">
<path d="M11.9531 0.673157C10.7812 1.34635 10.2656 3.0528 10.875 4.27394C11.0156 4.55574 14.0312 7.70251 17.5937 11.272C21.1562 14.8571 24.0625 17.863 24.0625 17.9726C24.0625 18.0665 23.8594 18.3796 23.5937 18.6614L23.1406 19.1781L16.0625 12.0861C9.79687 5.82384 8.92187 5.00975 8.5 5.00975C7.89062 5.00975 7.34375 5.57335 7.34375 6.19958C7.34375 6.59097 8.3125 7.62423 14.4062 13.7299L21.4687 20.8062L21.0156 21.2916L20.5625 21.7769L13.5156 14.7319C9.65625 10.8649 6.32812 7.65554 6.15625 7.60858C5.46875 7.40506 4.6875 8.0939 4.6875 8.89234C4.6875 9.03324 7.89062 12.3679 11.7969 16.2818L18.9062 23.4207L18.4687 23.8434C18.2344 24.0782 17.8906 24.2661 17.7187 24.2661C17.5312 24.2661 15.0469 21.8865 10.9375 17.769C3.96875 10.7867 3.82812 10.6614 2.48437 10.8493C1.59375 10.9745 0.71875 11.6007 0.328125 12.3992C-0.0625 13.2289 -0.078125 13.9647 0.28125 14.7475C0.515625 15.2485 12.2812 29.4168 14.2187 31.5303C15.2031 32.6105 16.9062 33.6751 18.4531 34.2074C19.7031 34.6301 19.9531 34.6614 23.6719 34.771C29.2344 34.9432 29.4687 35.0215 32.7969 38.5597C33.5781 39.3894 33.875 39.6086 34.25 39.6086C34.8125 39.6086 35.4687 38.9824 35.4687 38.4501C35.4687 37.6829 32.2344 34.317 30.7812 33.5812C28.8281 32.5949 28.5156 32.5323 24.2187 32.407C20.8281 32.3131 20.1094 32.2348 19.375 31.9687C18.2031 31.5616 17.3906 31.1233 16.6875 30.5597C15.8125 29.8708 2.5 13.9491 2.5 13.6047C2.5 13.4325 2.60937 13.3072 2.78125 13.3072C2.92187 13.3072 5.8125 16.0782 9.29687 19.5851C12.7344 23.0293 15.8437 26.0352 16.2031 26.2387C17.0625 26.7554 18.2656 26.7867 19.1406 26.3327C20.0156 25.8786 25.8594 19.9608 26.1719 19.225C26.4531 18.5362 26.4687 17.8473 26.2344 16.9863C26.0937 16.454 25.0625 15.3424 19.5 9.75339C13.1094 3.35026 12.5156 2.66142 13.3281 2.66142C13.5625 2.66142 29.6875 16.2035 30.1406 16.7827C30.7656 17.5812 31.4687 18.9119 31.75 19.8826C32 20.7123 32.0781 21.636 32.1719 24.8141C32.2969 29.0567 32.4062 29.6203 33.375 31.2798C34.2656 32.8141 37.3594 35.6947 38.1094 35.6947C38.6719 35.6947 39.2187 35.1154 39.2187 34.4892C39.2187 34.0978 39.0156 33.816 38.1719 33.0176C35.8594 30.8258 35.375 30.1996 34.875 28.728C34.7187 28.3053 34.6094 26.8493 34.5312 24.1878C34.4375 20.7749 34.375 20.133 34.0625 19.1781C33.5937 17.6908 32.75 16.0939 31.9375 15.2015C31.1562 14.3248 15.3594 0.986267 14.6406 0.579224C13.9375 0.203487 12.7344 0.234798 11.9531 0.673157Z" fill="#D0A166"/>
<path d="M71.4061 1.33069C71.2811 1.362 70.6405 1.47159 69.9999 1.56553C66.9061 2.08216 63.4374 3.5851 60.828 5.55769C59.0936 6.85711 53.6874 11.679 53.078 12.4618C52.328 13.4011 51.203 15.7495 50.9061 16.908C50.7655 17.5342 50.7186 18.5049 50.7811 20.4305C50.9218 25.409 50.8749 26.2857 50.4843 27.2876C50.2811 27.7886 49.7968 28.6027 49.3749 29.088C48.9686 29.5734 40.3436 38.5127 30.2187 48.9393C20.078 59.3659 11.328 68.3992 10.7499 69.0098C9.4999 70.3405 9.14053 70.998 8.90615 72.3444C8.42178 75.0998 10.0155 78.137 12.5468 79.2955C14.7499 80.3131 17.5155 80 19.1405 78.5753C19.4687 78.2779 27.5937 68.2896 37.1874 56.36C46.7968 44.4148 55.0468 34.3013 55.5155 33.863C57.078 32.454 57.8749 32.2035 62.0311 31.9373C65.3436 31.7182 66.4374 31.4833 68.2499 30.591C70.3593 29.5734 71.5468 28.3209 74.2499 24.3444C75.4061 22.6223 76.7186 20.5871 77.1561 19.8199C79.2968 16.0939 80.3124 11.3503 79.8749 7.07629C79.6561 4.91582 79.4061 4.11739 78.6718 3.14674C77.4843 1.62815 76.4686 1.25241 73.6874 1.26807C72.5624 1.28372 71.5311 1.31503 71.4061 1.33069ZM75.9374 3.94518C76.9686 4.47746 77.3124 5.26024 77.4843 7.54595C77.828 11.726 76.8124 15.9217 74.6249 19.4129C73.1249 21.8238 70.2186 25.9726 69.5468 26.6771C68.2186 28.0861 66.2968 29.088 64.453 29.3385C64.1093 29.3855 62.5936 29.5107 61.0936 29.6047C57.078 29.8552 55.2968 30.5283 53.4061 32.5009C53.0155 32.9236 44.8436 43.0215 35.2499 54.951C19.4843 74.5518 17.7343 76.681 17.0155 77.0567C15.0937 78.1056 12.5937 77.2446 11.6562 75.225C11.1874 74.2544 11.1093 72.8141 11.4687 71.9687C11.5937 71.6555 18.8593 64.0469 29.453 53.135C39.2343 43.0685 48.2343 33.816 49.4374 32.5636C51.1249 30.8258 51.7811 30.0274 52.2186 29.182C53.2499 27.225 53.328 26.6144 53.203 22.1526C53.1093 18.7397 53.1249 18.1135 53.3593 17.2211C53.6561 16.0626 54.328 14.7319 55.0311 13.8708C55.4843 13.3229 59.3124 9.87864 61.3749 8.17218C64.8905 5.26024 69.2343 3.66338 73.7499 3.61641C75.0155 3.60075 75.3593 3.66338 75.9374 3.94518Z" fill="#D0A166"/>
<path d="M50.1875 45.4011C49.6875 45.8708 49.7188 46.7162 50.2812 47.2641C50.5156 47.4833 56.5156 52.9784 63.6094 59.4442C73.9844 68.9001 76.5625 71.3424 76.8125 71.8747C77.2188 72.7827 77.1875 74.0665 76.7344 75.0684C76.0625 76.5557 74.9844 77.3228 73.3281 77.4637C71.3906 77.6203 72.1875 78.3718 59.9688 64.9236C46.2812 49.8473 47.1094 50.724 46.4688 50.724C45.8438 50.724 45.3125 51.225 45.3125 51.8356C45.3125 52.0704 45.5 52.4931 45.7344 52.7906C46.6406 53.8708 68.5 77.9021 69.0469 78.4031C70.7812 79.9999 73.5312 80.3287 75.8594 79.2328C79.4531 77.5577 80.6719 72.6731 78.25 69.7142C77.75 69.1193 58.5156 51.4442 52.0625 45.6673C51.3125 45.0097 50.7188 44.9158 50.1875 45.4011Z" fill="#D0A166"/>
</g>
<defs>
<clipPath id="clip0_159_2">
<rect width="80" height="80" fill="white"/>
</clipPath>
</defs>
</svg>
