<svg width="246" height="70" viewBox="0 0 246 70" fill="none" xmlns="http://www.w3.org/2000/svg">
<path d="M106.475 20.525C106.558 20.375 106.725 20.3667 106.975 20.5C107.225 20.6167 107.475 20.8 107.725 21.05C107.975 21.2833 108.192 21.55 108.375 21.85C108.558 22.1333 108.633 22.3667 108.6 22.55C107.75 24.7 106.933 26.6333 106.15 28.35C105.383 30.05 104.667 31.6333 104 33.1C103.65 33.8667 103.283 34.675 102.9 35.525C102.533 36.3583 102.167 37.2167 101.8 38.1C101.433 38.9667 101.075 39.8417 100.725 40.725C100.392 41.5917 100.075 42.4333 99.775 43.25C99.725 43.4333 99.675 43.6083 99.625 43.775C99.5917 43.925 99.575 44.0417 99.575 44.125C99.7083 43.8583 99.8417 43.6167 99.975 43.4C100.092 43.2167 100.2 43.0333 100.3 42.85C100.417 42.65 100.5 42.5083 100.55 42.425C101.317 41.1083 102.125 39.7833 102.975 38.45L104.05 36.725C105.717 34.0083 107.45 31.3333 109.25 28.7C111.067 26.05 113.058 23.5083 115.225 21.075C115.308 20.9917 115.442 20.9667 115.625 21C115.758 20.9667 115.958 21.0333 116.225 21.2C116.508 21.35 116.783 21.5333 117.05 21.75C117.317 21.9667 117.542 22.1917 117.725 22.425C117.925 22.6417 118 22.8 117.95 22.9C117.633 23.2 117.192 23.8 116.625 24.7C116.075 25.5833 115.458 26.6417 114.775 27.875C114.108 29.0917 113.425 30.425 112.725 31.875C112.042 33.325 111.417 34.775 110.85 36.225C110.283 37.6583 109.817 39.0333 109.45 40.35C109.1 41.65 108.925 42.775 108.925 43.725C108.925 44.375 109 44.9083 109.15 45.325C109.317 45.7417 109.575 46.0083 109.925 46.125C110.358 46.2917 110.808 46.375 111.275 46.375C111.558 46.375 111.85 46.3417 112.15 46.275C112.467 46.225 112.775 46.15 113.075 46.05C113.208 46.05 113.258 46.1 113.225 46.2C113.208 46.3167 113.142 46.4417 113.025 46.575C112.908 46.725 112.767 46.8583 112.6 46.975C112.45 47.1083 112.317 47.1833 112.2 47.2C111.95 47.2333 111.692 47.2583 111.425 47.275C111.158 47.2917 110.883 47.3 110.6 47.3C109.95 47.3 109.35 47.225 108.8 47.075C107.917 46.8417 107.275 46.3917 106.875 45.725C106.492 45.0583 106.3 44.25 106.3 43.3C106.3 42.4333 106.417 41.475 106.65 40.425C106.883 39.3583 107.192 38.25 107.575 37.1C107.975 35.95 108.425 34.775 108.925 33.575C109.425 32.375 109.95 31.2083 110.5 30.075C108.783 32.375 107.158 34.6917 105.625 37.025C104.108 39.3417 102.65 41.6417 101.25 43.925C101.083 44.175 100.867 44.4333 100.6 44.7C100.333 44.9667 100.042 45.1833 99.725 45.35C99.425 45.5333 99.1083 45.65 98.775 45.7C98.4417 45.75 98.1167 45.6833 97.8 45.5C97.3 45.2333 97.05 44.75 97.05 44.05C97.05 43.3333 97.225 42.4083 97.575 41.275C97.925 40.125 98.375 38.8667 98.925 37.5C99.475 36.1333 100.092 34.7 100.775 33.2C101.475 31.6833 102.167 30.1833 102.85 28.7L103.375 27.575C102.458 28.9083 101.533 30.2167 100.6 31.5C99.6833 32.7833 98.725 34.05 97.725 35.3H97.75C97.3 35.8833 96.825 36.4833 96.325 37.1C95.8417 37.7167 95.2667 38.3833 94.6 39.1C94.5167 39.1833 94.3667 39.35 94.15 39.6C93.95 39.85 93.725 40.1167 93.475 40.4C92.9917 40.95 92.4583 41.5417 91.875 42.175C91.3083 42.7917 90.7083 43.3667 90.075 43.9C89.4417 44.4167 88.7833 44.8417 88.1 45.175C87.4333 45.525 86.7583 45.6917 86.075 45.675C85.3917 45.6583 84.8333 45.475 84.4 45.125C83.9667 44.7917 83.6167 44.3667 83.35 43.85C83.0833 43.3167 82.9 42.7333 82.8 42.1C82.7 41.4667 82.65 40.8583 82.65 40.275C82.65 40.0417 82.6583 39.8 82.675 39.55C82.675 39.3 82.6917 39.0833 82.725 38.9C82.8417 37.95 83.1167 36.85 83.55 35.6C84 34.3333 84.5583 33.0417 85.225 31.725C85.9083 30.3917 86.6917 29.0833 87.575 27.8C88.475 26.5167 89.4333 25.375 90.45 24.375C91.4667 23.375 92.525 22.575 93.625 21.975C94.7417 21.3583 95.875 21.0583 97.025 21.075C97.4917 21.0917 97.9083 21.2167 98.275 21.45C98.6583 21.6833 98.975 21.975 99.225 22.325C99.475 22.6583 99.6667 23.0333 99.8 23.45C99.9333 23.8667 100 24.2583 100 24.625C100 24.9583 99.9417 25.2667 99.825 25.55C99.6583 25.95 99.4 26.3333 99.05 26.7C98.7 27.0667 98.35 27.35 98 27.55C97.65 27.75 97.3583 27.8333 97.125 27.8C96.8917 27.7667 96.8167 27.55 96.9 27.15C96.9667 26.9167 97.0583 26.55 97.175 26.05C97.2917 25.55 97.35 25.05 97.35 24.55C97.35 24.1 97.2917 23.7083 97.175 23.375C97.0583 23.0417 96.85 22.85 96.55 22.8C95.7 22.75 94.8167 23.0083 93.9 23.575C92.9833 24.125 92.075 24.8667 91.175 25.8C90.2917 26.7333 89.4417 27.7917 88.625 28.975C87.8083 30.1583 87.075 31.3583 86.425 32.575C85.7917 33.7917 85.2583 34.9667 84.825 36.1C84.4083 37.2333 84.1417 38.2 84.025 39C84.025 39.0333 84.0167 39.075 84 39.125C84 39.1583 84 39.1917 84 39.225C83.9833 39.425 83.9667 39.6333 83.95 39.85C83.95 40.05 83.95 40.25 83.95 40.45C83.95 40.6167 83.95 40.8 83.95 41C83.9667 41.1833 83.9917 41.3583 84.025 41.525C84.1417 42.175 84.3583 42.7417 84.675 43.225C84.9917 43.7083 85.5 44.0167 86.2 44.15C86.6667 44.15 87.2167 43.95 87.85 43.55C88.4833 43.1333 89.1667 42.575 89.9 41.875C90.6333 41.175 91.4083 40.35 92.225 39.4C93.0583 38.45 93.9083 37.425 94.775 36.325C95.6583 35.225 96.55 34.075 97.45 32.875C98.3667 31.6583 99.275 30.4417 100.175 29.225C101.225 27.8083 102.233 26.45 103.2 25.15C104.183 23.8333 105.142 22.6083 106.075 21.475C106.158 21.3083 106.225 21.15 106.275 21C106.325 20.8333 106.383 20.675 106.45 20.525H106.475ZM123.525 34.825C123.525 34.9417 123.45 35.0333 123.3 35.1C123.167 35.1667 123.017 35.2083 122.85 35.225C122.684 35.225 122.534 35.1917 122.4 35.125C122.267 35.0583 122.2 34.9583 122.2 34.825C122.2 34.7583 122.192 34.7 122.175 34.65C122.159 34.5833 122.15 34.5167 122.15 34.45C122.134 34.2667 122.109 34.0667 122.075 33.85C122.042 33.6167 121.984 33.4083 121.9 33.225C121.817 33.025 121.692 32.8583 121.525 32.725C121.375 32.5917 121.175 32.5167 120.925 32.5C120.492 32.4833 120.067 32.5833 119.65 32.8C119.25 33 118.859 33.275 118.475 33.625C118.092 33.975 117.734 34.375 117.4 34.825C117.067 35.275 116.759 35.75 116.475 36.25C116.209 36.7333 115.975 37.225 115.775 37.725C115.575 38.2083 115.417 38.6583 115.3 39.075C115.25 39.275 115.2 39.5083 115.15 39.775C115.1 40.0417 115.075 40.3083 115.075 40.575C115.075 40.8083 115.092 41.0333 115.125 41.25C115.175 41.45 115.259 41.625 115.375 41.775C115.492 41.925 115.642 42.0333 115.825 42.1C116.009 42.15 116.25 42.1417 116.55 42.075C116.784 42.025 117.075 41.85 117.425 41.55C117.775 41.2333 118.134 40.8667 118.5 40.45C118.867 40.0333 119.217 39.6 119.55 39.15C119.9 38.7 120.184 38.3 120.4 37.95C120.584 37.4667 120.742 36.9917 120.875 36.525C121.009 36.0583 121.092 35.6333 121.125 35.25H121.3C121.5 35.15 121.759 35.1583 122.075 35.275C122.409 35.375 122.717 35.5333 123 35.75C123.3 35.9667 123.542 36.225 123.725 36.525C123.909 36.8083 123.959 37.0917 123.875 37.375C123.842 37.475 123.792 37.5917 123.725 37.725C123.675 37.8417 123.625 37.9667 123.575 38.1C123.442 38.4 123.309 38.7167 123.175 39.05C123.042 39.3833 122.917 39.7167 122.8 40.05C122.7 40.3833 122.609 40.7083 122.525 41.025C122.459 41.325 122.425 41.5917 122.425 41.825C122.425 42.175 122.45 42.375 122.5 42.425H122.725C123.175 42.275 123.609 42.0167 124.025 41.65C124.442 41.2833 124.842 40.8667 125.225 40.4C125.609 39.9167 125.967 39.4083 126.3 38.875C126.65 38.3417 126.975 37.8333 127.275 37.35C127.359 37.2333 127.425 37.125 127.475 37.025C127.542 36.9083 127.609 36.7917 127.675 36.675C127.725 36.5917 127.825 36.55 127.975 36.55C128.125 36.5333 128.267 36.55 128.4 36.6C128.55 36.65 128.667 36.7167 128.75 36.8C128.834 36.8833 128.842 36.9833 128.775 37.1C128.675 37.25 128.575 37.4083 128.475 37.575C128.392 37.725 128.3 37.8833 128.2 38.05C127.684 38.9 127.117 39.7583 126.5 40.625C125.884 41.475 125.167 42.25 124.35 42.95C124.234 43.05 124.084 43.1667 123.9 43.3C123.717 43.4333 123.509 43.5583 123.275 43.675C123.042 43.7917 122.775 43.8917 122.475 43.975C122.192 44.0417 121.875 44.0667 121.525 44.05C120.709 43.9833 120.117 43.7333 119.75 43.3C119.384 42.8667 119.2 42.35 119.2 41.75V41.4C118.884 41.7333 118.55 42.05 118.2 42.35C117.867 42.65 117.517 42.9167 117.15 43.15C116.8 43.3833 116.442 43.575 116.075 43.725C115.709 43.8583 115.342 43.925 114.975 43.925C114.375 43.875 113.867 43.7333 113.45 43.5C113.05 43.2667 112.734 43 112.5 42.7C112.267 42.3833 112.1 42.05 112 41.7C111.9 41.3333 111.85 40.9833 111.85 40.65C111.85 40.5167 111.859 40.3833 111.875 40.25C111.875 40.1167 111.884 40 111.9 39.9C111.967 39.3667 112.125 38.7833 112.375 38.15C112.642 37.5167 112.967 36.8833 113.35 36.25C113.75 35.6167 114.209 35.0083 114.725 34.425C115.259 33.825 115.834 33.3 116.45 32.85C117.067 32.3833 117.709 32.0167 118.375 31.75C119.059 31.4667 119.759 31.325 120.475 31.325C120.925 31.325 121.35 31.375 121.75 31.475C122.117 31.575 122.417 31.7417 122.65 31.975C122.9 32.2083 123.092 32.4833 123.225 32.8C123.359 33.1 123.442 33.425 123.475 33.775C123.525 34.125 123.542 34.475 123.525 34.825ZM146.231 39.275C145.998 39.6417 145.681 40.1 145.281 40.65C144.881 41.1833 144.431 41.7 143.931 42.2C143.448 42.7 142.923 43.1333 142.356 43.5C141.789 43.85 141.223 44.025 140.656 44.025C140.323 44.025 140.006 43.975 139.706 43.875C139.406 43.775 139.139 43.625 138.906 43.425C138.673 43.225 138.489 42.9667 138.356 42.65C138.223 42.3333 138.164 41.9583 138.181 41.525C138.198 41.1083 138.256 40.6917 138.356 40.275C138.456 39.8583 138.589 39.4167 138.756 38.95C138.923 38.4667 139.114 37.9417 139.331 37.375C139.564 36.8083 139.831 36.175 140.131 35.475C140.264 35.1417 140.381 34.825 140.481 34.525C140.581 34.225 140.631 33.9583 140.631 33.725C140.631 33.5583 140.523 33.5167 140.306 33.6C140.106 33.6833 139.764 33.925 139.281 34.325C138.698 34.8583 138.156 35.3833 137.656 35.9C137.156 36.4167 136.664 36.9917 136.181 37.625C135.914 38.1917 135.664 38.8083 135.431 39.475C135.214 40.1417 135.023 40.85 134.856 41.6C134.689 42.3333 134.581 43.0833 134.531 43.85C134.531 44.0167 134.406 44.0833 134.156 44.05C133.906 44.0167 133.631 43.9417 133.331 43.825C133.048 43.6917 132.781 43.5333 132.531 43.35C132.281 43.15 132.148 42.9667 132.131 42.8C132.181 41.6333 132.389 40.4667 132.756 39.3C133.139 38.1167 133.573 36.9083 134.056 35.675C134.306 35.0417 134.489 34.5167 134.606 34.1C134.723 33.6833 134.739 33.4333 134.656 33.35C134.456 33.3833 133.981 33.7083 133.231 34.325C132.648 34.8417 132.114 35.3667 131.631 35.9C131.148 36.4167 130.648 36.9917 130.131 37.625C129.698 38.6083 129.331 39.6167 129.031 40.65C128.731 41.6833 128.539 42.75 128.456 43.85C128.439 44 128.306 44.0583 128.056 44.025C127.806 43.9917 127.539 43.9167 127.256 43.8C126.973 43.6667 126.706 43.5083 126.456 43.325C126.206 43.1417 126.073 42.9667 126.056 42.8C126.123 41.55 126.356 40.3167 126.756 39.1C127.173 37.8667 127.614 36.625 128.081 35.375C128.314 34.7917 128.539 34.1917 128.756 33.575C128.989 32.9583 129.206 32.2833 129.406 31.55C129.606 31.45 129.881 31.45 130.231 31.55C130.581 31.6333 130.914 31.775 131.231 31.975C131.548 32.175 131.806 32.4167 132.006 32.7C132.206 32.9833 132.256 33.2667 132.156 33.55H132.181C132.181 33.5833 132.173 33.6083 132.156 33.625C132.773 33.0417 133.431 32.55 134.131 32.15C134.831 31.7333 135.564 31.5 136.331 31.45C136.531 31.45 136.748 31.525 136.981 31.675C137.231 31.8083 137.456 31.9833 137.656 32.2C137.856 32.4 138.006 32.6167 138.106 32.85C138.206 33.0833 138.223 33.2917 138.156 33.475C138.123 33.525 138.098 33.575 138.081 33.625C138.081 33.675 138.064 33.7167 138.031 33.75C138.664 33.15 139.348 32.6333 140.081 32.2C140.814 31.75 141.581 31.5 142.381 31.45C142.564 31.45 142.773 31.525 143.006 31.675C143.239 31.8083 143.448 31.9833 143.631 32.2C143.831 32.4 143.981 32.6167 144.081 32.85C144.198 33.0833 144.223 33.2917 144.156 33.475C143.873 34.275 143.589 35.0083 143.306 35.675C143.023 36.3417 142.773 36.9167 142.556 37.4C142.356 37.8167 142.181 38.2083 142.031 38.575C141.881 38.9417 141.748 39.3083 141.631 39.675C141.514 40.0417 141.414 40.4167 141.331 40.8C141.248 41.1833 141.189 41.6 141.156 42.05C141.139 42.1333 141.156 42.225 141.206 42.325C141.256 42.425 141.373 42.4333 141.556 42.35C142.023 42.1333 142.573 41.7417 143.206 41.175C143.839 40.5917 144.498 39.8 145.181 38.8C145.331 38.5833 145.489 38.3333 145.656 38.05C145.823 37.75 145.998 37.4333 146.181 37.1L146.456 36.675C146.556 36.5417 146.689 36.4583 146.856 36.425C147.023 36.3917 147.173 36.4 147.306 36.45C147.456 36.4833 147.556 36.5583 147.606 36.675C147.673 36.7917 147.656 36.9333 147.556 37.1C147.339 37.4667 147.114 37.8333 146.881 38.2C146.664 38.55 146.448 38.9083 146.231 39.275ZM165.054 39.275C164.821 39.6417 164.504 40.1 164.104 40.65C163.704 41.1833 163.254 41.7 162.754 42.2C162.271 42.7 161.746 43.1333 161.179 43.5C160.612 43.85 160.046 44.025 159.479 44.025C159.146 44.025 158.829 43.975 158.529 43.875C158.229 43.775 157.962 43.625 157.729 43.425C157.496 43.225 157.312 42.9667 157.179 42.65C157.046 42.3333 156.987 41.9583 157.004 41.525C157.021 41.1083 157.079 40.6917 157.179 40.275C157.279 39.8583 157.412 39.4167 157.579 38.95C157.746 38.4667 157.937 37.9417 158.154 37.375C158.387 36.8083 158.654 36.175 158.954 35.475C159.087 35.1417 159.204 34.825 159.304 34.525C159.404 34.225 159.454 33.9583 159.454 33.725C159.454 33.5583 159.346 33.5167 159.129 33.6C158.929 33.6833 158.587 33.925 158.104 34.325C157.521 34.8583 156.979 35.3833 156.479 35.9C155.979 36.4167 155.487 36.9917 155.004 37.625C154.737 38.1917 154.487 38.8083 154.254 39.475C154.037 40.1417 153.846 40.85 153.679 41.6C153.512 42.3333 153.404 43.0833 153.354 43.85C153.354 44.0167 153.229 44.0833 152.979 44.05C152.729 44.0167 152.454 43.9417 152.154 43.825C151.871 43.6917 151.604 43.5333 151.354 43.35C151.104 43.15 150.971 42.9667 150.954 42.8C151.004 41.6333 151.212 40.4667 151.579 39.3C151.962 38.1167 152.396 36.9083 152.879 35.675C153.129 35.0417 153.312 34.5167 153.429 34.1C153.546 33.6833 153.562 33.4333 153.479 33.35C153.279 33.3833 152.804 33.7083 152.054 34.325C151.471 34.8417 150.937 35.3667 150.454 35.9C149.971 36.4167 149.471 36.9917 148.954 37.625C148.521 38.6083 148.154 39.6167 147.854 40.65C147.554 41.6833 147.362 42.75 147.279 43.85C147.262 44 147.129 44.0583 146.879 44.025C146.629 43.9917 146.362 43.9167 146.079 43.8C145.796 43.6667 145.529 43.5083 145.279 43.325C145.029 43.1417 144.896 42.9667 144.879 42.8C144.946 41.55 145.179 40.3167 145.579 39.1C145.996 37.8667 146.437 36.625 146.904 35.375C147.137 34.7917 147.362 34.1917 147.579 33.575C147.812 32.9583 148.029 32.2833 148.229 31.55C148.429 31.45 148.704 31.45 149.054 31.55C149.404 31.6333 149.737 31.775 150.054 31.975C150.371 32.175 150.629 32.4167 150.829 32.7C151.029 32.9833 151.079 33.2667 150.979 33.55H151.004C151.004 33.5833 150.996 33.6083 150.979 33.625C151.596 33.0417 152.254 32.55 152.954 32.15C153.654 31.7333 154.387 31.5 155.154 31.45C155.354 31.45 155.571 31.525 155.804 31.675C156.054 31.8083 156.279 31.9833 156.479 32.2C156.679 32.4 156.829 32.6167 156.929 32.85C157.029 33.0833 157.046 33.2917 156.979 33.475C156.946 33.525 156.921 33.575 156.904 33.625C156.904 33.675 156.887 33.7167 156.854 33.75C157.487 33.15 158.171 32.6333 158.904 32.2C159.637 31.75 160.404 31.5 161.204 31.45C161.387 31.45 161.596 31.525 161.829 31.675C162.062 31.8083 162.271 31.9833 162.454 32.2C162.654 32.4 162.804 32.6167 162.904 32.85C163.021 33.0833 163.046 33.2917 162.979 33.475C162.696 34.275 162.412 35.0083 162.129 35.675C161.846 36.3417 161.596 36.9167 161.379 37.4C161.179 37.8167 161.004 38.2083 160.854 38.575C160.704 38.9417 160.571 39.3083 160.454 39.675C160.337 40.0417 160.237 40.4167 160.154 40.8C160.071 41.1833 160.012 41.6 159.979 42.05C159.962 42.1333 159.979 42.225 160.029 42.325C160.079 42.425 160.196 42.4333 160.379 42.35C160.846 42.1333 161.396 41.7417 162.029 41.175C162.662 40.5917 163.321 39.8 164.004 38.8C164.154 38.5833 164.312 38.3333 164.479 38.05C164.646 37.75 164.821 37.4333 165.004 37.1L165.279 36.675C165.379 36.5417 165.512 36.4583 165.679 36.425C165.846 36.3917 165.996 36.4 166.129 36.45C166.279 36.4833 166.379 36.5583 166.429 36.675C166.496 36.7917 166.479 36.9333 166.379 37.1C166.162 37.4667 165.937 37.8333 165.704 38.2C165.487 38.55 165.271 38.9083 165.054 39.275ZM175.527 34.825C175.527 34.9417 175.452 35.0333 175.302 35.1C175.169 35.1667 175.019 35.2083 174.852 35.225C174.686 35.225 174.536 35.1917 174.402 35.125C174.269 35.0583 174.202 34.9583 174.202 34.825C174.202 34.7583 174.194 34.7 174.177 34.65C174.161 34.5833 174.152 34.5167 174.152 34.45C174.136 34.2667 174.111 34.0667 174.077 33.85C174.044 33.6167 173.986 33.4083 173.902 33.225C173.819 33.025 173.694 32.8583 173.527 32.725C173.377 32.5917 173.177 32.5167 172.927 32.5C172.494 32.4833 172.069 32.5833 171.652 32.8C171.252 33 170.861 33.275 170.477 33.625C170.094 33.975 169.736 34.375 169.402 34.825C169.069 35.275 168.761 35.75 168.477 36.25C168.211 36.7333 167.977 37.225 167.777 37.725C167.577 38.2083 167.419 38.6583 167.302 39.075C167.252 39.275 167.202 39.5083 167.152 39.775C167.102 40.0417 167.077 40.3083 167.077 40.575C167.077 40.8083 167.094 41.0333 167.127 41.25C167.177 41.45 167.261 41.625 167.377 41.775C167.494 41.925 167.644 42.0333 167.827 42.1C168.011 42.15 168.252 42.1417 168.552 42.075C168.786 42.025 169.077 41.85 169.427 41.55C169.777 41.2333 170.136 40.8667 170.502 40.45C170.869 40.0333 171.219 39.6 171.552 39.15C171.902 38.7 172.186 38.3 172.402 37.95C172.586 37.4667 172.744 36.9917 172.877 36.525C173.011 36.0583 173.094 35.6333 173.127 35.25H173.302C173.502 35.15 173.761 35.1583 174.077 35.275C174.411 35.375 174.719 35.5333 175.002 35.75C175.302 35.9667 175.544 36.225 175.727 36.525C175.911 36.8083 175.961 37.0917 175.877 37.375C175.844 37.475 175.794 37.5917 175.727 37.725C175.677 37.8417 175.627 37.9667 175.577 38.1C175.444 38.4 175.311 38.7167 175.177 39.05C175.044 39.3833 174.919 39.7167 174.802 40.05C174.702 40.3833 174.611 40.7083 174.527 41.025C174.461 41.325 174.427 41.5917 174.427 41.825C174.427 42.175 174.452 42.375 174.502 42.425H174.727C175.177 42.275 175.611 42.0167 176.027 41.65C176.444 41.2833 176.844 40.8667 177.227 40.4C177.611 39.9167 177.969 39.4083 178.302 38.875C178.652 38.3417 178.977 37.8333 179.277 37.35C179.361 37.2333 179.427 37.125 179.477 37.025C179.544 36.9083 179.611 36.7917 179.677 36.675C179.727 36.5917 179.827 36.55 179.977 36.55C180.127 36.5333 180.269 36.55 180.402 36.6C180.552 36.65 180.669 36.7167 180.752 36.8C180.836 36.8833 180.844 36.9833 180.777 37.1C180.677 37.25 180.577 37.4083 180.477 37.575C180.394 37.725 180.302 37.8833 180.202 38.05C179.686 38.9 179.119 39.7583 178.502 40.625C177.886 41.475 177.169 42.25 176.352 42.95C176.236 43.05 176.086 43.1667 175.902 43.3C175.719 43.4333 175.511 43.5583 175.277 43.675C175.044 43.7917 174.777 43.8917 174.477 43.975C174.194 44.0417 173.877 44.0667 173.527 44.05C172.711 43.9833 172.119 43.7333 171.752 43.3C171.386 42.8667 171.202 42.35 171.202 41.75V41.4C170.886 41.7333 170.552 42.05 170.202 42.35C169.869 42.65 169.519 42.9167 169.152 43.15C168.802 43.3833 168.444 43.575 168.077 43.725C167.711 43.8583 167.344 43.925 166.977 43.925C166.377 43.875 165.869 43.7333 165.452 43.5C165.052 43.2667 164.736 43 164.502 42.7C164.269 42.3833 164.102 42.05 164.002 41.7C163.902 41.3333 163.852 40.9833 163.852 40.65C163.852 40.5167 163.861 40.3833 163.877 40.25C163.877 40.1167 163.886 40 163.902 39.9C163.969 39.3667 164.127 38.7833 164.377 38.15C164.644 37.5167 164.969 36.8833 165.352 36.25C165.752 35.6167 166.211 35.0083 166.727 34.425C167.261 33.825 167.836 33.3 168.452 32.85C169.069 32.3833 169.711 32.0167 170.377 31.75C171.061 31.4667 171.761 31.325 172.477 31.325C172.927 31.325 173.352 31.375 173.752 31.475C174.119 31.575 174.419 31.7417 174.652 31.975C174.902 32.2083 175.094 32.4833 175.227 32.8C175.361 33.1 175.444 33.425 175.477 33.775C175.527 34.125 175.544 34.475 175.527 34.825ZM207.598 20.525C207.681 20.375 207.848 20.3667 208.098 20.5C208.348 20.6167 208.598 20.8 208.848 21.05C209.098 21.2833 209.315 21.55 209.498 21.85C209.681 22.1333 209.756 22.3667 209.723 22.55C208.873 24.7 208.056 26.6333 207.273 28.35C206.506 30.05 205.79 31.6333 205.123 33.1C204.773 33.8667 204.406 34.675 204.023 35.525C203.656 36.3583 203.29 37.2167 202.923 38.1C202.556 38.9667 202.198 39.8417 201.848 40.725C201.515 41.5917 201.198 42.4333 200.898 43.25C200.848 43.4333 200.798 43.6083 200.748 43.775C200.715 43.925 200.698 44.0417 200.698 44.125C200.831 43.8583 200.965 43.6167 201.098 43.4C201.215 43.2167 201.323 43.0333 201.423 42.85C201.54 42.65 201.623 42.5083 201.673 42.425C202.44 41.1083 203.248 39.7833 204.098 38.45L205.173 36.725C206.84 34.0083 208.573 31.3333 210.373 28.7C212.19 26.05 214.181 23.5083 216.348 21.075C216.431 20.9917 216.565 20.9667 216.748 21C216.881 20.9667 217.081 21.0333 217.348 21.2C217.631 21.35 217.906 21.5333 218.173 21.75C218.44 21.9667 218.665 22.1917 218.848 22.425C219.048 22.6417 219.123 22.8 219.073 22.9C218.756 23.2 218.315 23.8 217.748 24.7C217.198 25.5833 216.581 26.6417 215.898 27.875C215.231 29.0917 214.548 30.425 213.848 31.875C213.165 33.325 212.54 34.775 211.973 36.225C211.406 37.6583 210.94 39.0333 210.573 40.35C210.223 41.65 210.048 42.775 210.048 43.725C210.048 44.375 210.123 44.9083 210.273 45.325C210.44 45.7417 210.698 46.0083 211.048 46.125C211.481 46.2917 211.931 46.375 212.398 46.375C212.681 46.375 212.973 46.3417 213.273 46.275C213.59 46.225 213.898 46.15 214.198 46.05C214.331 46.05 214.381 46.1 214.348 46.2C214.331 46.3167 214.265 46.4417 214.148 46.575C214.031 46.725 213.89 46.8583 213.723 46.975C213.573 47.1083 213.44 47.1833 213.323 47.2C213.073 47.2333 212.815 47.2583 212.548 47.275C212.281 47.2917 212.006 47.3 211.723 47.3C211.073 47.3 210.473 47.225 209.923 47.075C209.04 46.8417 208.398 46.3917 207.998 45.725C207.615 45.0583 207.423 44.25 207.423 43.3C207.423 42.4333 207.54 41.475 207.773 40.425C208.006 39.3583 208.315 38.25 208.698 37.1C209.098 35.95 209.548 34.775 210.048 33.575C210.548 32.375 211.073 31.2083 211.623 30.075C209.906 32.375 208.281 34.6917 206.748 37.025C205.231 39.3417 203.773 41.6417 202.373 43.925C202.206 44.175 201.99 44.4333 201.723 44.7C201.456 44.9667 201.165 45.1833 200.848 45.35C200.548 45.5333 200.231 45.65 199.898 45.7C199.565 45.75 199.24 45.6833 198.923 45.5C198.423 45.2333 198.173 44.75 198.173 44.05C198.173 43.3333 198.348 42.4083 198.698 41.275C199.048 40.125 199.498 38.8667 200.048 37.5C200.598 36.1333 201.215 34.7 201.898 33.2C202.598 31.6833 203.29 30.1833 203.973 28.7L204.498 27.575C203.581 28.9083 202.656 30.2167 201.723 31.5C200.806 32.7833 199.848 34.05 198.848 35.3H198.873C198.423 35.8833 197.948 36.4833 197.448 37.1C196.965 37.7167 196.39 38.3833 195.723 39.1C195.64 39.1833 195.49 39.35 195.273 39.6C195.073 39.85 194.848 40.1167 194.598 40.4C194.115 40.95 193.581 41.5417 192.998 42.175C192.431 42.7917 191.831 43.3667 191.198 43.9C190.565 44.4167 189.906 44.8417 189.223 45.175C188.556 45.525 187.881 45.6917 187.198 45.675C186.515 45.6583 185.956 45.475 185.523 45.125C185.09 44.7917 184.74 44.3667 184.473 43.85C184.206 43.3167 184.023 42.7333 183.923 42.1C183.823 41.4667 183.773 40.8583 183.773 40.275C183.773 40.0417 183.781 39.8 183.798 39.55C183.798 39.3 183.815 39.0833 183.848 38.9C183.965 37.95 184.24 36.85 184.673 35.6C185.123 34.3333 185.681 33.0417 186.348 31.725C187.031 30.3917 187.815 29.0833 188.698 27.8C189.598 26.5167 190.556 25.375 191.573 24.375C192.59 23.375 193.648 22.575 194.748 21.975C195.865 21.3583 196.998 21.0583 198.148 21.075C198.615 21.0917 199.031 21.2167 199.398 21.45C199.781 21.6833 200.098 21.975 200.348 22.325C200.598 22.6583 200.79 23.0333 200.923 23.45C201.056 23.8667 201.123 24.2583 201.123 24.625C201.123 24.9583 201.065 25.2667 200.948 25.55C200.781 25.95 200.523 26.3333 200.173 26.7C199.823 27.0667 199.473 27.35 199.123 27.55C198.773 27.75 198.481 27.8333 198.248 27.8C198.015 27.7667 197.94 27.55 198.023 27.15C198.09 26.9167 198.181 26.55 198.298 26.05C198.415 25.55 198.473 25.05 198.473 24.55C198.473 24.1 198.415 23.7083 198.298 23.375C198.181 23.0417 197.973 22.85 197.673 22.8C196.823 22.75 195.94 23.0083 195.023 23.575C194.106 24.125 193.198 24.8667 192.298 25.8C191.415 26.7333 190.565 27.7917 189.748 28.975C188.931 30.1583 188.198 31.3583 187.548 32.575C186.915 33.7917 186.381 34.9667 185.948 36.1C185.531 37.2333 185.265 38.2 185.148 39C185.148 39.0333 185.14 39.075 185.123 39.125C185.123 39.1583 185.123 39.1917 185.123 39.225C185.106 39.425 185.09 39.6333 185.073 39.85C185.073 40.05 185.073 40.25 185.073 40.45C185.073 40.6167 185.073 40.8 185.073 41C185.09 41.1833 185.115 41.3583 185.148 41.525C185.265 42.175 185.481 42.7417 185.798 43.225C186.115 43.7083 186.623 44.0167 187.323 44.15C187.79 44.15 188.34 43.95 188.973 43.55C189.606 43.1333 190.29 42.575 191.023 41.875C191.756 41.175 192.531 40.35 193.348 39.4C194.181 38.45 195.031 37.425 195.898 36.325C196.781 35.225 197.673 34.075 198.573 32.875C199.49 31.6583 200.398 30.4417 201.298 29.225C202.348 27.8083 203.356 26.45 204.323 25.15C205.306 23.8333 206.265 22.6083 207.198 21.475C207.281 21.3083 207.348 21.15 207.398 21C207.448 20.8333 207.506 20.675 207.573 20.525H207.598ZM216.823 31.45C217.007 31.3667 217.24 31.3667 217.523 31.45C217.823 31.5333 218.107 31.675 218.373 31.875C218.64 32.0583 218.857 32.2917 219.023 32.575C219.207 32.8417 219.273 33.1083 219.223 33.375L218.323 35.025C218.073 35.4583 217.798 35.9417 217.498 36.475C217.198 37.0083 216.907 37.55 216.623 38.1C216.34 38.6333 216.073 39.1583 215.823 39.675C215.573 40.1917 215.373 40.6583 215.223 41.075C215.09 41.475 215.015 41.8 214.998 42.05C214.998 42.3 215.098 42.425 215.298 42.425H215.498C215.965 42.2583 216.423 42 216.873 41.65C217.34 41.2833 217.782 40.8667 218.198 40.4C218.632 39.9333 219.04 39.45 219.423 38.95C219.823 38.4333 220.19 37.9417 220.523 37.475L220.898 36.95C220.965 36.8667 221.073 36.825 221.223 36.825C221.373 36.8083 221.507 36.825 221.623 36.875C221.757 36.9083 221.857 36.975 221.923 37.075C221.99 37.1583 221.973 37.2583 221.873 37.375H221.898C221.232 38.4083 220.515 39.3917 219.748 40.325C218.982 41.2583 218.082 42.1333 217.048 42.95C216.915 43.05 216.748 43.1667 216.548 43.3C216.348 43.4333 216.123 43.5583 215.873 43.675C215.623 43.775 215.348 43.8667 215.048 43.95C214.765 44.0167 214.473 44.05 214.173 44.05C213.573 44.0333 213.132 43.85 212.848 43.5C212.565 43.1333 212.423 42.6917 212.423 42.175C212.423 41.7583 212.507 41.2917 212.673 40.775H212.648C212.732 40.4583 212.857 40.0917 213.023 39.675C213.19 39.2417 213.373 38.7833 213.573 38.3C213.79 37.8167 214.015 37.3167 214.248 36.8C214.498 36.2833 214.748 35.7667 214.998 35.25C215.332 34.5333 215.648 33.85 215.948 33.2C216.248 32.55 216.49 31.9667 216.673 31.45H216.823ZM219.173 33.55L219.223 33.375C219.357 33.1417 219.423 33.0167 219.423 33C219.44 32.9667 219.357 33.15 219.173 33.55ZM219.298 24.55C219.482 24.5167 219.715 24.5917 219.998 24.775C220.298 24.9583 220.582 25.1833 220.848 25.45C221.132 25.7 221.365 25.9583 221.548 26.225C221.748 26.475 221.848 26.65 221.848 26.75C221.782 27.0167 221.657 27.325 221.473 27.675C221.307 28.025 221.132 28.375 220.948 28.725C220.782 29.0583 220.623 29.3917 220.473 29.725C220.323 30.0417 220.19 30.4 220.073 30.8C219.89 30.7667 219.682 30.6833 219.448 30.55C219.232 30.4 219.023 30.2333 218.823 30.05C218.64 29.8667 218.482 29.6833 218.348 29.5C218.215 29.3167 218.148 29.1667 218.148 29.05C218.165 28.7667 218.207 28.4583 218.273 28.125C218.357 27.775 218.448 27.4083 218.548 27.025C218.665 26.6083 218.765 26.1917 218.848 25.775C218.948 25.3417 219.015 24.9333 219.048 24.55H219.298ZM231.216 34.825C231.216 34.9417 231.141 35.0333 230.991 35.1C230.857 35.1667 230.707 35.2083 230.541 35.225C230.374 35.225 230.224 35.1917 230.091 35.125C229.957 35.0583 229.891 34.9583 229.891 34.825C229.891 34.7583 229.882 34.7 229.866 34.65C229.849 34.5833 229.841 34.5167 229.841 34.45C229.824 34.2667 229.799 34.0667 229.766 33.85C229.732 33.6167 229.674 33.4083 229.591 33.225C229.507 33.025 229.382 32.8583 229.216 32.725C229.066 32.5917 228.866 32.5167 228.616 32.5C228.182 32.4833 227.757 32.5833 227.341 32.8C226.941 33 226.549 33.275 226.166 33.625C225.782 33.975 225.424 34.375 225.091 34.825C224.757 35.275 224.449 35.75 224.166 36.25C223.899 36.7333 223.666 37.225 223.466 37.725C223.266 38.2083 223.107 38.6583 222.991 39.075C222.941 39.275 222.891 39.5083 222.841 39.775C222.791 40.0417 222.766 40.3083 222.766 40.575C222.766 40.8083 222.782 41.0333 222.816 41.25C222.866 41.45 222.949 41.625 223.066 41.775C223.182 41.925 223.332 42.0333 223.516 42.1C223.699 42.15 223.941 42.1417 224.241 42.075C224.474 42.025 224.766 41.85 225.116 41.55C225.466 41.2333 225.824 40.8667 226.191 40.45C226.557 40.0333 226.907 39.6 227.241 39.15C227.591 38.7 227.874 38.3 228.091 37.95C228.274 37.4667 228.432 36.9917 228.566 36.525C228.699 36.0583 228.782 35.6333 228.816 35.25H228.991C229.191 35.15 229.449 35.1583 229.766 35.275C230.099 35.375 230.407 35.5333 230.691 35.75C230.991 35.9667 231.232 36.225 231.416 36.525C231.599 36.8083 231.649 37.0917 231.566 37.375C231.532 37.475 231.482 37.5917 231.416 37.725C231.366 37.8417 231.316 37.9667 231.266 38.1C231.132 38.4 230.999 38.7167 230.866 39.05C230.732 39.3833 230.607 39.7167 230.491 40.05C230.391 40.3833 230.299 40.7083 230.216 41.025C230.149 41.325 230.116 41.5917 230.116 41.825C230.116 42.175 230.141 42.375 230.191 42.425H230.416C230.866 42.275 231.299 42.0167 231.716 41.65C232.132 41.2833 232.532 40.8667 232.916 40.4C233.299 39.9167 233.657 39.4083 233.991 38.875C234.341 38.3417 234.666 37.8333 234.966 37.35C235.049 37.2333 235.116 37.125 235.166 37.025C235.232 36.9083 235.299 36.7917 235.366 36.675C235.416 36.5917 235.516 36.55 235.666 36.55C235.816 36.5333 235.957 36.55 236.091 36.6C236.241 36.65 236.357 36.7167 236.441 36.8C236.524 36.8833 236.532 36.9833 236.466 37.1C236.366 37.25 236.266 37.4083 236.166 37.575C236.082 37.725 235.991 37.8833 235.891 38.05C235.374 38.9 234.807 39.7583 234.191 40.625C233.574 41.475 232.857 42.25 232.041 42.95C231.924 43.05 231.774 43.1667 231.591 43.3C231.407 43.4333 231.199 43.5583 230.966 43.675C230.732 43.7917 230.466 43.8917 230.166 43.975C229.882 44.0417 229.566 44.0667 229.216 44.05C228.399 43.9833 227.807 43.7333 227.441 43.3C227.074 42.8667 226.891 42.35 226.891 41.75V41.4C226.574 41.7333 226.241 42.05 225.891 42.35C225.557 42.65 225.207 42.9167 224.841 43.15C224.491 43.3833 224.132 43.575 223.766 43.725C223.399 43.8583 223.032 43.925 222.666 43.925C222.066 43.875 221.557 43.7333 221.141 43.5C220.741 43.2667 220.424 43 220.191 42.7C219.957 42.3833 219.791 42.05 219.691 41.7C219.591 41.3333 219.541 40.9833 219.541 40.65C219.541 40.5167 219.549 40.3833 219.566 40.25C219.566 40.1167 219.574 40 219.591 39.9C219.657 39.3667 219.816 38.7833 220.066 38.15C220.332 37.5167 220.657 36.8833 221.041 36.25C221.441 35.6167 221.899 35.0083 222.416 34.425C222.949 33.825 223.524 33.3 224.141 32.85C224.757 32.3833 225.399 32.0167 226.066 31.75C226.749 31.4667 227.449 31.325 228.166 31.325C228.616 31.325 229.041 31.375 229.441 31.475C229.807 31.575 230.107 31.7417 230.341 31.975C230.591 32.2083 230.782 32.4833 230.916 32.8C231.049 33.1 231.132 33.425 231.166 33.775C231.216 34.125 231.232 34.475 231.216 34.825ZM242.262 40.275L243.487 39.9L244.487 26.2L241.212 27.15L242.262 40.275ZM244.387 42.95C244.387 42.5333 244.237 42.175 243.937 41.875C243.637 41.575 243.287 41.425 242.887 41.425C242.47 41.425 242.112 41.575 241.812 41.875C241.512 42.175 241.362 42.5333 241.362 42.95C241.362 43.3667 241.503 43.7167 241.787 44C242.087 44.2833 242.453 44.425 242.887 44.425C243.287 44.425 243.637 44.2833 243.937 44C244.237 43.7167 244.387 43.3667 244.387 42.95Z" fill="#D0A166"/>
<path d="M11.833 20.6022C11.5535 20.242 12.0448 19.8741 12.3836 20.1807C13.0273 20.7632 19.4817 26.9331 20.4981 27.9218C21.5145 28.9105 22.0143 29.1022 22.5733 28.5963C23.1408 28.0828 22.3785 27.2167 22.0058 26.8028C21.6331 26.3966 14.2386 18.2415 13.8743 17.8507C13.3915 17.3295 13.2899 17.1379 13.5186 16.9309C13.7473 16.724 13.959 16.8159 14.535 17.2528C14.9755 17.5824 23.9794 24.2735 24.4283 24.6108C24.8772 24.948 25.8429 25.6378 26.4104 25.1243C26.9779 24.6108 26.7661 24.1662 25.665 23.2465C24.5723 22.3267 17.7537 16.4864 17.11 15.9039C16.7712 15.5973 17.1777 15.1604 17.5759 15.4057C18.1518 15.7736 28.9853 22.2348 30.2982 23.553C32.8901 26.1513 30.2813 29.5007 32.4497 32.099C31.7636 32.6432 30.9759 33.264 30.1034 33.9461C27.2574 32.191 23.6491 34.4137 20.8284 32.1143C19.3716 30.9263 12.2311 21.1234 11.8245 20.6022H11.833ZM51.169 46.8148C49.6613 45.6422 42.4785 40.0471 37.6504 36.2838C36.9305 37.0349 36.058 37.9393 35.0839 38.9511C39.2344 43.3122 45.2737 49.6507 46.5442 50.9997C48.5263 53.0921 51.2283 56.3418 54.1506 53.6976C57.0728 51.0533 53.4814 48.616 51.169 46.8148ZM53.4221 25.04C55.1924 21.9282 55.887 18.4715 54.1675 16.9156C52.448 15.3597 48.6279 15.9882 45.189 17.5901C41.767 19.1843 39.3953 21.522 38.9718 23.9976C38.3027 27.9371 38.9125 29.585 36.5493 31.2865C35.2279 32.2446 16.8559 46.8455 14.5689 48.6543C12.2989 50.4478 11.8669 52.1647 13.4932 53.6746C13.4932 53.6746 13.5101 53.6899 13.5186 53.6976C13.5186 53.6976 13.5355 53.7129 13.544 53.7206C15.2126 55.1922 17.11 54.7936 19.092 52.7395C21.091 50.6701 37.2269 34.0458 38.2857 32.8501C40.1746 30.7194 41.9957 31.2635 46.341 30.6581C49.0769 30.2748 51.6603 28.1288 53.4221 25.0323V25.04ZM11.9177 48.6467L9.64766 47.4587V22.5413L10.5879 22.0508C10.41 21.8132 10.2914 21.6522 10.2491 21.5986C10.1813 21.5066 10.1305 21.407 10.0796 21.3073L8.68205 22.0355V47.9645L11.3671 49.3671C11.5281 49.1295 11.7144 48.8843 11.9177 48.6467ZM33.5 0L0 17.4981V52.5019L33.5 70L67 52.5019V17.4981L33.5 0ZM66.0344 52.0037L33.5 69.0036L0.965613 52.0037V18.0039L33.5 1.01172L66.0344 18.0116V52.0037ZM22.099 16.0418L33.5 10.0865L44.6215 15.8962C44.9772 15.7352 45.3415 15.5896 45.6972 15.4517L33.5 9.08245L21.2096 15.5053C21.5145 15.6893 21.811 15.8732 22.099 16.0495V16.0418ZM56.6832 22.1964L57.3523 22.549V47.4663L55.7176 48.3248C55.9209 48.5547 56.1072 48.7923 56.2851 49.0376L58.3264 47.9722V22.0355L56.9034 21.292C56.8441 21.5909 56.7764 21.8898 56.6917 22.1888L56.6832 22.1964ZM46.1885 53.299L33.5 59.9288L21.0148 53.4063C20.8115 53.6133 20.659 53.7742 20.5405 53.8969C20.4812 53.9582 20.4219 54.0118 20.3541 54.0731L33.4915 60.9405L46.8492 53.9658C46.6205 53.7512 46.4003 53.529 46.18 53.3067L46.1885 53.299Z" fill="url(#paint0_linear_214_13)"/>
<defs>
<linearGradient id="paint0_linear_214_13" x1="4.69254" y1="66.2061" x2="57.6642" y2="-3.87047" gradientUnits="userSpaceOnUse">
<stop stop-color="#BE965D"/>
<stop offset="0.28" stop-color="#976F40"/>
<stop offset="0.43" stop-color="#C99B61"/>
<stop offset="0.56" stop-color="#F0BD7B"/>
<stop offset="0.63" stop-color="#FFCB85"/>
<stop offset="0.71" stop-color="#EDBB79"/>
<stop offset="0.87" stop-color="#C0935B"/>
<stop offset="1" stop-color="#976F40"/>
</linearGradient>
</defs>
</svg>
