<svg width="67" height="70" viewBox="0 0 67 70" fill="none" xmlns="http://www.w3.org/2000/svg">
<path d="M11.833 20.6022C11.5535 20.242 12.0448 19.8741 12.3836 20.1807C13.0273 20.7632 19.4817 26.9331 20.4981 27.9218C21.5145 28.9105 22.0143 29.1022 22.5733 28.5963C23.1408 28.0828 22.3785 27.2167 22.0058 26.8028C21.6331 26.3966 14.2386 18.2415 13.8743 17.8507C13.3915 17.3295 13.2899 17.1379 13.5186 16.9309C13.7473 16.724 13.959 16.8159 14.535 17.2528C14.9755 17.5824 23.9794 24.2735 24.4283 24.6108C24.8772 24.948 25.8429 25.6378 26.4104 25.1243C26.9779 24.6108 26.7661 24.1662 25.665 23.2465C24.5723 22.3267 17.7537 16.4864 17.11 15.9039C16.7712 15.5973 17.1777 15.1604 17.5759 15.4057C18.1518 15.7736 28.9853 22.2348 30.2982 23.553C32.8901 26.1513 30.2813 29.5007 32.4497 32.099C31.7636 32.6432 30.9759 33.264 30.1034 33.9461C27.2574 32.191 23.6491 34.4137 20.8284 32.1143C19.3716 30.9263 12.2311 21.1234 11.8245 20.6022H11.833ZM51.169 46.8148C49.6613 45.6422 42.4785 40.0471 37.6504 36.2838C36.9305 37.0349 36.058 37.9393 35.0839 38.9511C39.2344 43.3122 45.2737 49.6507 46.5443 50.9997C48.5263 53.0921 51.2283 56.3418 54.1506 53.6976C57.0728 51.0533 53.4814 48.616 51.169 46.8148ZM53.4221 25.04C55.1924 21.9282 55.887 18.4715 54.1675 16.9156C52.448 15.3597 48.6279 15.9882 45.189 17.5901C41.767 19.1843 39.3953 21.522 38.9718 23.9976C38.3027 27.9371 38.9125 29.585 36.5493 31.2865C35.2279 32.2446 16.8559 46.8455 14.5689 48.6543C12.2989 50.4478 11.8669 52.1647 13.4932 53.6746C13.4932 53.6746 13.5101 53.6899 13.5186 53.6976C13.5186 53.6976 13.5355 53.7129 13.544 53.7206C15.2126 55.1922 17.11 54.7936 19.092 52.7395C21.091 50.6701 37.2269 34.0458 38.2857 32.8501C40.1746 30.7194 41.9957 31.2635 46.341 30.6581C49.0769 30.2748 51.6603 28.1288 53.4221 25.0323V25.04ZM11.9177 48.6467L9.64766 47.4587V22.5413L10.5879 22.0508C10.41 21.8132 10.2914 21.6523 10.2491 21.5986C10.1813 21.5066 10.1305 21.407 10.0796 21.3073L8.68205 22.0355V47.9645L11.3671 49.3671C11.5281 49.1295 11.7144 48.8843 11.9177 48.6467ZM33.5 0L0 17.4981V52.5019L33.5 70L67 52.5019V17.4981L33.5 0ZM66.0344 52.0037L33.5 69.0036L0.965613 52.0037V18.0039L33.5 1.01172L66.0344 18.0116V52.0037ZM22.099 16.0418L33.5 10.0865L44.6215 15.8962C44.9772 15.7352 45.3415 15.5896 45.6972 15.4517L33.5 9.08245L21.2096 15.5053C21.5145 15.6893 21.811 15.8732 22.099 16.0495V16.0418ZM56.6832 22.1964L57.3523 22.549V47.4663L55.7176 48.3248C55.9209 48.5547 56.1072 48.7923 56.2851 49.0376L58.3264 47.9722V22.0355L56.9034 21.292C56.8441 21.5909 56.7764 21.8899 56.6917 22.1888L56.6832 22.1964ZM46.1885 53.299L33.5 59.9288L21.0148 53.4063C20.8115 53.6133 20.659 53.7742 20.5405 53.8969C20.4812 53.9582 20.4219 54.0118 20.3541 54.0731L33.4915 60.9405L46.8492 53.9658C46.6205 53.7512 46.4003 53.529 46.18 53.3067L46.1885 53.299Z" fill="url(#paint0_linear_214_15)"/>
<defs>
<linearGradient id="paint0_linear_214_15" x1="4.69254" y1="66.2061" x2="57.6642" y2="-3.87047" gradientUnits="userSpaceOnUse">
<stop stop-color="#BE965D"/>
<stop offset="0.28" stop-color="#976F40"/>
<stop offset="0.43" stop-color="#C99B61"/>
<stop offset="0.56" stop-color="#F0BD7B"/>
<stop offset="0.63" stop-color="#FFCB85"/>
<stop offset="0.71" stop-color="#EDBB79"/>
<stop offset="0.87" stop-color="#C0935B"/>
<stop offset="1" stop-color="#976F40"/>
</linearGradient>
</defs>
</svg>
