<svg width="80" height="80" viewBox="0 0 80 80" fill="none" xmlns="http://www.w3.org/2000/svg">
<g clip-path="url(#clip0_313_25)">
<path d="M19.2969 17.25C17.7344 17.9687 17.3438 18.7187 16.7031 22.375L16.3438 24.375H9.81251H3.26563L2.89063 24.7656C2.67188 24.9687 2.50001 25.2344 2.50001 25.3594C2.50001 25.4844 3.03126 33.2187 3.67188 42.5469C4.31251 51.875 4.84376 59.7812 4.84376 60.1406V60.7812H2.76563C0.781259 60.7812 0.656259 60.7969 0.343759 61.1406C-0.265616 61.7812 -0.0468664 62.6562 0.796884 62.9531C1.48438 63.1875 78.5313 63.2031 79.1563 62.9687C80.0313 62.625 80.2656 61.7187 79.6406 61.125C79.2969 60.7969 79.1406 60.7812 76.5938 60.7812C75.1094 60.7812 73.9063 60.75 73.9063 60.7187C73.9063 60.6875 74.0156 60.4219 74.1406 60.1094C74.6094 58.9844 77.5313 46.8906 77.4375 46.5C77.2969 45.9062 76.5938 45.625 75.3125 45.625H74.1875L74.5938 45.1406C75.2031 44.4219 75.125 43.75 74.3594 43.3437C73.6875 43 73.2813 43.1875 72.0156 44.4687C70.9375 45.5469 70.3125 45.9062 70.3125 45.4219C70.3125 45.2969 70.5156 44.1719 70.7813 42.8906C71.0313 41.625 71.2031 40.4219 71.1563 40.2187C70.9531 39.4062 69.6406 39.1875 69.1563 39.875C69.0313 40.0469 68.7344 41.1875 68.5 42.4375C68.2656 43.6719 67.9844 44.6875 67.8906 44.6875C67.5 44.6875 66.6719 44 66.25 43.3281C65.6875 42.4531 65.6875 42.3437 66.1406 41.5937C66.8125 40.5156 67.0625 39.6562 67.1406 38.2031C67.2188 36.5937 67.0469 36.1094 66.3281 35.875C66.0625 35.7812 65.8281 35.7031 65.7969 35.6719C65.7656 35.6562 67.5781 33.7344 69.8438 31.3906C74.3438 26.7344 74.5781 26.4219 74.5781 24.7656C74.5625 22.5781 72.9844 20.8594 70.7969 20.6719C69.6563 20.5781 68.3906 21.0312 67.625 21.8281C67.3125 22.1562 64.6875 25.5156 61.7969 29.2969C58.8906 33.0781 56.2656 36.4687 55.9688 36.8437L55.4375 37.5156L55.0313 36.9219C54.0469 35.4062 52.625 34.3125 50.9219 33.75C49.5156 33.2656 47.4531 33.3437 47.0313 33.875C46.2969 34.7812 46.4844 37.0156 47.4688 38.9375C48.0781 40.1406 48.0781 40.1406 47.7188 40.2187C47.5313 40.2656 47.1563 40.5 46.875 40.7187C46.6094 40.9531 46.375 41.1094 46.3438 41.0781C46.3125 41.0469 46.125 40.7031 45.9375 40.3125C45.3594 39.1562 44.7031 38.3437 44.0469 37.9844C43.4531 37.6562 43.4375 37.6094 43.4375 36.8281C43.4375 35.7812 43.1875 34.8906 42.8281 34.7031C41.8438 34.1719 39.7344 34.3906 38.0781 35.2031L37.0156 35.7344L36.4844 34.6719C35.6875 33.125 35.0938 32.7969 34.2813 33.4844C33.7813 33.9219 33.7344 34.5312 34.1563 35.3281C34.3125 35.6406 34.3594 35.8594 34.25 35.9062C34.1719 35.9219 33.5781 36.2812 32.9531 36.6875L31.7969 37.4219L29.7656 37.5C28 37.5781 27.6406 37.6406 27.1406 37.9531L26.5625 38.3125V37.9375C26.5625 37.7187 26.7344 35.0625 26.9531 32.0156C27.4531 24.9531 27.4531 25.1094 26.9375 24.7031C26.5469 24.3906 26.3281 24.375 22.6406 24.375C20.5 24.375 18.75 24.3125 18.75 24.25C18.75 23.8437 19.5313 20.125 19.6875 19.8594C19.7813 19.6875 19.9844 19.4687 20.1563 19.375C20.3438 19.2812 22.5156 19.2187 25.9844 19.2187C31.3438 19.2187 31.5313 19.2031 31.9375 18.8906C32.4688 18.4687 32.5 17.6875 31.9844 17.2187C31.625 16.875 31.5625 16.875 25.8438 16.875C20.1406 16.875 20.0781 16.875 19.2969 17.25ZM71.6719 23.4687C72.1406 23.9375 72.3281 24.625 72.1563 25.25C72 25.8437 62.1563 36.1406 61.0625 36.875C60.3438 37.3594 59.0938 38.5937 58.7969 39.125C58.6406 39.4062 58.6094 39.4062 58.0938 39.0469L57.5313 38.6719L63.2969 31.1719C66.4531 27.0469 69.2813 23.5 69.5625 23.3125C70.2031 22.8437 71.125 22.9219 71.6719 23.4687ZM24.9063 27.7656C24.8594 28.3594 24.7344 30.0625 24.6406 31.5625L24.4531 34.2969L20.6406 34.3437L16.8438 34.375L16.9219 33.9531C16.9688 33.7031 17.1406 32.7969 17.2813 31.9375C17.5469 30.4375 17.5469 30.3281 17.2969 29.9375C16.9688 29.4531 16.4688 29.2969 15.8906 29.5156C15.3594 29.7187 15.2813 29.9375 14.8281 32.375L14.4688 34.375H9.96876C7.50001 34.375 5.46876 34.3594 5.46876 34.3281C5.46876 34.3125 5.35938 32.8906 5.23438 31.1719C5.10938 29.4531 5.00001 27.75 5.00001 27.375V26.7187H14.9844H24.9844L24.9063 27.7656ZM50.4688 36.0781C50.8906 36.2344 51.5313 36.6094 51.8906 36.8906C52.5625 37.4219 53.4844 38.7031 53.3438 38.9219C53.3125 38.9844 52.8906 39.2656 52.4219 39.5312L51.5625 40.0156L51.1094 39.7031C50.0469 38.9375 49.25 37.6719 49 36.3594C48.9063 35.8125 48.9219 35.7812 49.2813 35.7812C49.5 35.7812 50.0313 35.9219 50.4688 36.0781ZM13.9063 36.9844C13.9063 37.1406 13.0156 42 11.9375 47.7969L9.96876 58.3125L10.2656 58.7344C10.7656 59.3906 11.9063 59.375 12.1875 58.7031C12.2813 58.5156 13.2188 53.6562 14.2969 47.8906C15.375 42.125 16.2813 37.2656 16.3281 37.0625L16.4063 36.7187H20.3125H24.2188V37.3281C24.2188 38.5 23.8906 41.9531 23.7813 42C23.7031 42.0156 23.2031 42.2969 22.6563 42.625C21.5313 43.2812 20.8594 44.1094 20.7031 45L20.5938 45.625H19.6875C18.5625 45.625 18.0625 45.7969 17.7188 46.3281C17.4688 46.7031 17.5156 46.9375 19.0625 53.1719C19.9531 56.7031 20.7656 59.7969 20.875 60.0312C21 60.2656 21.0938 60.5312 21.0938 60.625C21.0938 60.7344 18.9688 60.7656 14.1875 60.75L7.26563 60.7031L6.45313 48.9844C6.01563 42.5312 5.64063 37.1406 5.64063 36.9844C5.62501 36.7344 5.92188 36.7187 9.76563 36.7187C13.6094 36.7187 13.9063 36.7344 13.9063 36.9844ZM41.0313 37.375C40.875 38.3281 40.0313 39.7969 39.2969 40.4062C38.5938 40.9687 37.5625 41.4687 36.7656 41.625C36.2813 41.7031 36.25 41.6875 36.25 41.2812C36.25 40.4844 36.7344 39.3906 37.4375 38.6094C38.2656 37.6875 39.0156 37.1875 40 36.9375C41.125 36.625 41.1406 36.625 41.0313 37.375ZM64.8438 38.3594C64.8438 38.5625 64.7031 39.125 64.5313 39.5781L64.2188 40.4219L63.625 40.2187C63.3125 40.1094 62.5938 40.0156 62.0469 40H61.0469L61.4219 39.5937C61.9063 39.0781 62.9531 38.4531 63.7969 38.2031C64.7344 37.9062 64.8438 37.9219 64.8438 38.3594ZM34.375 39.1094C33.7344 40.5625 33.6875 42.9062 34.2813 43.5781C34.6563 44 36.0156 44.1562 37.2188 43.9062C39.2031 43.5156 40.8906 42.4375 42.0469 40.7812C42.6875 39.875 42.7188 39.8594 43.0156 40.125C43.1875 40.2656 43.5 40.7344 43.7031 41.1719C43.9219 41.5937 44.3125 42.2656 44.5781 42.625C45.1875 43.5469 45.0469 43.7969 43.25 44.8125L41.8438 45.625H36.8906H31.9531L31.4063 44.5625C30.75 43.3125 30.2031 42.9375 29.5469 43.2969C28.8906 43.6719 28.6875 44.25 28.9844 44.9375C29.1094 45.25 29.2188 45.5312 29.2188 45.5625C29.2188 45.5937 27.8125 45.625 26.0938 45.625C24.375 45.625 22.9688 45.5625 22.9688 45.5C22.9688 45.2656 23.6406 44.75 24.7188 44.1562C26.0313 43.4375 26.5625 42.9062 27.2813 41.5937C28.25 39.8437 28.25 39.8437 30.0625 39.8437C31.9219 39.8437 32.4531 39.7187 33.5938 39C34.0625 38.7031 34.5 38.4687 34.5625 38.4531C34.625 38.4375 34.5313 38.7344 34.375 39.1094ZM57.1875 41.25C58.8594 42.2344 59.2344 42.3437 61.2031 42.3437C63.0469 42.3437 63.0781 42.3594 63.9063 43.9531C64.1875 44.4844 64.5625 45.0781 64.7188 45.2656L65.0313 45.5937L63.5156 45.6562C62.1563 45.7031 61.9688 45.7344 61.7031 46.0781C61.3125 46.5469 61.3281 47.2656 61.7188 47.6562C62.0156 47.9531 62.2344 47.9687 68.3281 47.9687C71.7969 47.9687 74.6719 48 74.7188 48.0469C74.8594 48.2031 72.0781 59.0312 71.7813 59.4844C71.3438 60.1562 70.9219 60.4375 70.0781 60.625C69.5469 60.7344 62.3281 60.7812 47.0313 60.75C26.3438 60.7031 24.7344 60.6875 24.2813 60.4375C23.2031 59.8437 23.1094 59.5937 21.6719 53.8437C20.9219 50.875 20.3125 48.3281 20.3125 48.2031C20.3125 48 22.4531 47.9687 39.2031 47.9687H58.1094L58.4219 47.5625C58.8438 47.0156 58.8281 46.6719 58.375 46.1406C58.0156 45.7344 57.9063 45.7031 56.5156 45.6562C55.1406 45.5937 55.0313 45.5781 54.875 45.2344C54.625 44.7031 54.0156 44.3437 53.5469 44.4531C53.3438 44.5156 52.9219 44.7969 52.6406 45.0937L52.125 45.625H49.2813H46.4375L46.9219 44.75C47.2031 44.2812 47.6406 43.5625 47.8906 43.1562L48.3594 42.4219L50.3125 42.3281C52.4375 42.2344 52.7031 42.1562 54.0156 41.3125C54.8906 40.75 55.4063 40.5 55.7031 40.4844C55.7969 40.4687 56.4531 40.8281 57.1875 41.25Z" fill="white"/>
</g>
<defs>
<clipPath id="clip0_313_25">
<rect width="80" height="80" fill="white"/>
</clipPath>
</defs>
</svg>
