<?xml version="1.0" standalone="no"?>
<!DOCTYPE svg PUBLIC "-//W3C//DTD SVG 20010904//EN"
 "http://www.w3.org/TR/2001/REC-SVG-20010904/DTD/svg10.dtd">
<svg version="1.0" xmlns="http://www.w3.org/2000/svg"
 width="512.000000pt" height="512.000000pt" viewBox="0 0 512.000000 512.000000"
 preserveAspectRatio="xMidYMid meet">

<g transform="translate(0.000000,512.000000) scale(0.100000,-0.100000)"
fill="#ffffff" stroke="none">
<path d="M2646 5105 c-95 -33 -166 -131 -167 -228 -1 -30 2 -64 5 -74 6 -19
-1 -20 -138 -26 -302 -13 -532 -68 -783 -187 -480 -228 -803 -636 -865 -1092
l-12 -88 -74 0 c-114 0 -187 -39 -235 -128 -57 -106 -42 -220 41 -303 79 -79
80 -79 640 -79 l484 0 -5 -282 c-7 -378 -25 -456 -171 -728 -46 -86 -99 -192
-118 -236 -37 -83 -98 -264 -98 -289 0 -18 4 -18 -45 0 -109 39 -181 13 -327
-118 -264 -239 -464 -386 -613 -451 -60 -27 -113 -77 -141 -132 -17 -35 -19
-61 -19 -259 0 -207 1 -222 22 -260 25 -47 74 -95 123 -121 33 -18 74 -19 699
-22 564 -2 671 0 708 12 48 17 295 207 347 268 61 71 73 190 28 277 -27 52
-24 57 90 161 162 148 312 257 491 356 62 34 108 69 155 119 325 340 479 485
683 642 183 142 222 198 263 381 14 61 37 146 51 189 43 130 137 310 212 403
l68 85 495 5 c484 5 496 6 535 27 146 79 188 260 90 389 -45 59 -108 88 -205
94 l-85 5 -11 82 c-39 276 -177 545 -389 758 -320 323 -747 500 -1260 522
l-142 6 9 40 c19 87 -30 199 -111 254 -64 43 -152 54 -225 28z m140 -179 c58
-49 20 -146 -57 -146 -43 0 -79 39 -79 85 0 74 80 110 136 61z m439 -326 c138
-13 276 -41 397 -80 127 -42 335 -145 443 -221 112 -80 264 -230 333 -331 100
-147 181 -349 198 -497 l7 -61 -1872 0 -1871 0 0 23 c0 47 39 205 69 282 183
473 700 827 1291 884 126 12 878 13 1005 1z m1695 -1380 c43 -43 34 -110 -20
-137 -37 -19 -4304 -19 -4340 0 -53 27 -62 96 -18 137 22 20 26 20 2190 20
2145 0 2168 0 2188 -20z m-3055 -354 c49 -37 63 -71 80 -183 19 -127 19 -285
-1 -453 -21 -181 -16 -250 26 -329 38 -71 87 -118 162 -158 48 -25 63 -28 153
-28 89 0 106 3 155 27 67 34 646 538 689 602 16 23 49 87 73 142 83 187 190
343 272 393 28 18 50 21 140 21 58 0 106 -2 106 -5 0 -2 -20 -35 -44 -72 -101
-158 -186 -366 -226 -553 -35 -162 -41 -171 -225 -315 -202 -158 -401 -344
-604 -561 -94 -102 -136 -139 -184 -165 -170 -90 -364 -231 -543 -395 l-111
-102 -245 246 -246 247 18 80 c31 136 78 252 190 470 182 355 200 425 207 823
6 311 5 308 80 299 25 -3 57 -16 78 -31z m930 -15 c-54 -75 -113 -210 -135
-308 -10 -48 -29 -133 -41 -188 -22 -105 -74 -268 -102 -321 -21 -41 -101
-112 -152 -135 -104 -48 -235 12 -262 120 -3 13 2 102 12 196 27 262 9 561
-41 657 l-15 28 386 0 385 0 -35 -49z m438 27 c-40 -44 -115 -170 -165 -276
-27 -59 -57 -122 -66 -140 -13 -28 -221 -225 -229 -218 -2 1 13 76 32 166 43
205 92 312 192 420 l65 70 96 0 95 0 -20 -22z m-1815 -2030 c199 -200 365
-373 368 -385 13 -48 -5 -72 -129 -171 -67 -54 -132 -104 -144 -110 -16 -9
-191 -12 -653 -12 l-632 0 -29 29 -29 29 0 171 c0 103 4 180 11 194 7 16 39
38 86 62 164 82 363 229 601 444 102 92 129 111 155 111 28 0 71 -39 395 -362z"/>
<path d="M2230 4429 c-476 -48 -902 -304 -1085 -650 -19 -37 -35 -78 -35 -92
0 -37 43 -77 82 -77 44 1 59 14 104 90 107 184 272 330 487 430 164 76 312
114 516 131 143 12 171 26 171 85 0 46 -9 63 -41 79 -30 16 -69 17 -199 4z"/>
</g>
</svg>
