<svg width="40" height="40" viewBox="0 0 40 40" fill="none" xmlns="http://www.w3.org/2000/svg">
<path d="M18.5936 2.61719C16.4373 2.96094 14.3592 4.21094 13.0389 5.95313C10.5311 9.28906 10.6873 13.8281 13.4217 17.0078C15.3201 19.2109 18.4842 20.3594 21.3201 19.8906C25.2264 19.2344 28.117 16.2891 28.6717 12.3828C29.1014 9.35938 27.7576 6.14844 25.2967 4.28906C23.3826 2.85156 20.9608 2.24219 18.5936 2.61719ZM21.4842 5.17969C22.2654 5.39844 22.7967 5.625 23.3826 6.01563C26.7108 8.1875 27.2108 12.8594 24.4139 15.6641C21.6092 18.4609 16.9373 17.9609 14.7654 14.6328C14.0701 13.5703 13.7889 12.6094 13.7889 11.25C13.7889 9.89063 14.0701 8.92969 14.7576 7.875C15.6873 6.45313 17.1326 5.46875 18.8279 5.10938C19.4529 4.97656 20.8748 5.01563 21.4842 5.17969Z" fill="white"/>
<path d="M12.1484 22.5859C10.7109 22.7734 9.18751 23.3047 7.9297 24.0547C4.71876 25.9609 2.71876 29.2734 2.53126 33.0078C2.4922 33.6562 2.51564 34 2.60939 34.4062C2.96095 35.8828 4.10157 37.0391 5.5547 37.3828C5.9922 37.4844 7.83595 37.5 20 37.5C32.1641 37.5 34.0078 37.4844 34.4453 37.3828C36.2422 36.9531 37.4922 35.3359 37.5 33.4375C37.5 31.6953 36.9453 29.6562 36.0469 28.0859C34.4453 25.3125 31.8985 23.4531 28.6563 22.7109C27.9453 22.5469 27.7735 22.5469 20.3125 22.5312C16.0469 22.5234 12.4531 22.5469 12.1484 22.5859ZM27.625 25.0859C30.2031 25.4453 32.5391 27.0078 33.836 29.2578C34.5547 30.4922 34.9375 31.8438 34.9531 33.1719C34.9609 33.9609 34.9453 34.0547 34.7734 34.3125C34.6719 34.4609 34.461 34.6719 34.3125 34.7734L34.0313 34.9609H20H5.96876L5.68751 34.7734C5.0547 34.3359 4.89845 33.7656 5.07032 32.4688C5.25001 31.1562 5.72657 29.8828 6.46095 28.7734C6.82814 28.2109 7.78907 27.2031 8.35939 26.7578C9.50001 25.8828 11.0938 25.2344 12.5391 25.0547C13.1484 24.9766 27.0625 25.0078 27.625 25.0859Z" fill="white"/>
</svg>
